<svg id="Capa_1" enable-background="new 0 0 512 512" height="512" viewBox="0 0 512 512" width="512" xmlns="http://www.w3.org/2000/svg"><g><path d="m497 358.12h-482c0-133.1 107.9-241 241-241s241 107.9 241 241z" fill="#f0f8ff"/><path d="m497 358.12h-241v-241c133.1 0 241 107.9 241 241z" fill="#d7e5f4"/><path d="m241 117.12h30v54h-30z" fill="#4c5c72"/><path d="m134 145.794h30v54h-30z" fill="#4c5c72" transform="matrix(.866 -.5 .5 .866 -66.435 97.651)"/><path d="m414.329 236.124h54v30h-54z" fill="#343941" transform="matrix(.866 -.5 .5 .866 -66.435 254.311)"/><path d="m55.671 224.124h30v54h-30z" fill="#4c5c72" transform="matrix(.5 -.866 .866 .5 -182.144 186.765)"/><g fill="#343941"><path d="m336 157.794h54v30h-54z" transform="matrix(.5 -.866 .866 .5 31.855 400.763)"/><path d="m251.693 265.722h97.667v30h-97.667z" transform="matrix(.508 -.861 .861 .508 -93.996 396.795)"/><path d="m256 117.12h15v54h-15z"/></g><path d="m437.02 177.1c-48.35-48.35-112.64-74.98-181.02-74.98s-132.67 26.63-181.02 74.98c-48.35 48.36-74.98 112.64-74.98 181.02v15h512v-15c0-68.38-26.63-132.66-74.98-181.02zm-406.53 166.02c7.75-117.64 105.94-211 225.51-211s217.76 93.36 225.51 211z" fill="#626d7f"/><path d="m512 358.12v15h-256v-30h225.51c-7.75-117.64-105.94-211-225.51-211v-30c68.38 0 132.67 26.63 181.02 74.98 48.35 48.36 74.98 112.64 74.98 181.02z" fill="#464f53"/><path d="m309.77 356.24c0 9.49-2.53 18.84-7.48 27.23-10 16.93-27.91 26.38-46.29 26.41h-.09c-9.28 0-18.68-2.4-27.24-7.45-12.36-7.3-21.14-18.98-24.72-32.88s-1.53-28.37 5.76-40.73c7.3-12.37 18.98-21.15 32.88-24.73 4.44-1.14 8.94-1.71 13.41-1.72 9.52-.02 18.91 2.52 27.33 7.49 12.36 7.3 21.14 18.97 24.72 32.88 1.15 4.47 1.72 9 1.72 13.5z" fill="#ff6826"/><path d="m309.77 356.24c0 9.49-2.53 18.84-7.48 27.23-10 16.93-27.91 26.38-46.29 26.41v-107.51c9.52-.02 18.91 2.52 27.33 7.49 12.36 7.3 21.14 18.97 24.72 32.88 1.15 4.47 1.72 9 1.72 13.5z" fill="#e50057"/></g></svg>