<?xml version="1.0" standalone="no"?>
<!DOCTYPE svg PUBLIC "-//W3C//DTD SVG 20010904//EN"
 "http://www.w3.org/TR/2001/REC-SVG-20010904/DTD/svg10.dtd">
<svg version="1.0" xmlns="http://www.w3.org/2000/svg"
 width="1280.000000pt" height="952.000000pt" viewBox="0 0 1280.000000 952.000000"
 preserveAspectRatio="xMidYMid meet">
<metadata>
Created by potrace 1.15, written by Peter Selinger 2001-2017
</metadata>
<g transform="translate(0.000000,952.000000) scale(0.100000,-0.100000)"
fill="#000000" stroke="none">
<path d="M2340 9360 c-49 -26 -71 -69 -71 -136 0 -81 28 -120 126 -170 74 -39
105 -71 105 -112 0 -46 -15 -69 -49 -77 -40 -8 -70 9 -87 51 -14 32 -17 34
-65 34 l-51 0 6 -37 c14 -80 70 -126 159 -131 50 -3 71 1 106 20 68 35 86 66
86 148 0 61 -3 72 -31 106 -17 21 -61 55 -97 74 -88 48 -107 66 -107 105 0 38
26 65 63 65 28 0 57 -32 57 -62 0 -15 9 -18 56 -18 l56 0 -7 33 c-11 51 -38
91 -75 109 -46 24 -134 23 -180 -2z"/>
<path d="M3601 9362 c-56 -28 -76 -64 -76 -137 0 -91 13 -106 155 -188 31 -18
61 -44 68 -60 29 -61 -16 -126 -79 -112 -24 6 -35 16 -48 46 -16 38 -17 39
-67 39 l-52 0 9 -42 c13 -57 42 -93 89 -112 91 -36 204 -6 241 64 25 46 25
134 1 180 -12 22 -39 47 -73 67 -150 88 -139 78 -139 128 0 38 4 47 24 56 39
18 73 4 87 -36 12 -34 15 -35 62 -35 l50 0 -6 36 c-13 79 -70 124 -157 124
-33 0 -69 -7 -89 -18z"/>
<path d="M4029 9357 c-78 -52 -104 -138 -97 -312 4 -81 11 -123 25 -156 22
-49 70 -95 109 -105 42 -11 124 2 152 23 65 48 100 179 88 329 -13 172 -68
244 -189 244 -40 0 -63 -6 -88 -23z m144 -99 c17 -22 21 -47 25 -135 5 -122
-9 -212 -38 -238 -26 -24 -69 -15 -94 18 -18 25 -21 45 -25 154 -5 177 17 238
82 231 19 -2 38 -13 50 -30z"/>
<path d="M2690 9080 l0 -290 149 0 c146 0 149 0 155 23 3 12 6 32 6 45 0 21
-3 22 -105 22 l-105 0 0 85 0 85 95 0 95 0 0 45 0 45 -95 0 -95 0 0 70 0 70
100 0 100 0 0 45 0 45 -150 0 -150 0 0 -290z"/>
<path d="M3185 9358 c-4 -11 -93 -392 -124 -530 l-9 -38 53 0 53 0 13 73 14
72 64 3 c73 3 76 1 86 -67 11 -82 11 -81 72 -81 40 0 54 3 51 13 -3 6 -34 137
-69 290 l-64 277 -68 0 c-45 0 -69 -4 -72 -12z m109 -290 l6 -38 -45 0 c-29 0
-45 4 -45 13 0 6 10 62 22 122 l22 110 17 -85 c9 -47 20 -102 23 -122z"/>
<path d="M4400 9080 l0 -290 45 0 45 0 2 208 3 207 74 -207 74 -208 58 0 59 0
0 290 0 290 -52 0 -51 0 6 -196 c3 -108 4 -194 2 -192 -2 2 -26 64 -53 138
-28 74 -60 161 -72 193 l-21 57 -60 0 -59 0 0 -290z"/>
<path d="M4950 9120 l0 -220 70 0 70 0 0 70 0 70 290 0 290 0 0 80 0 80 -290
0 -290 0 0 70 0 70 -70 0 -70 0 0 -220z"/>
<path d="M4950 8755 l0 -85 360 0 360 0 0 85 0 85 -360 0 -360 0 0 -85z"/>
<path d="M5880 8545 l0 -135 34 0 c34 0 35 1 38 48 l3 47 188 3 187 2 0 40 0
40 -190 0 -190 0 0 45 c0 45 0 45 -35 45 l-35 0 0 -135z"/>
<path d="M4566 8630 c-42 -13 -84 -57 -117 -121 -49 -97 -113 -126 -164 -74
-44 43 -23 105 40 121 20 5 25 12 25 40 0 32 -1 33 -32 28 -72 -14 -110 -59
-111 -132 -1 -93 49 -147 138 -147 61 0 97 21 130 74 88 141 108 158 171 146
47 -8 74 -37 74 -78 0 -43 -23 -75 -63 -85 -27 -7 -33 -14 -35 -40 -3 -29 -1
-32 25 -32 35 0 87 31 109 65 24 36 23 131 -1 172 -10 17 -30 38 -46 47 -34
20 -105 28 -143 16z"/>
<path d="M3610 8500 l0 -130 40 0 40 0 0 40 0 40 170 0 170 0 0 50 0 50 -170
0 -170 0 0 40 0 40 -40 0 -40 0 0 -130z"/>
<path d="M5065 8575 c-49 -17 -90 -62 -104 -112 -6 -21 -11 -102 -11 -180 l0
-143 360 0 360 0 0 80 0 80 -145 0 -145 0 0 39 c0 32 10 54 33 72 1 1 58 5
127 8 l125 6 3 80 3 80 -103 -3 c-161 -4 -187 -9 -225 -47 l-32 -32 -16 24
c-36 55 -146 78 -230 48z m170 -178 c8 -12 15 -38 15 -59 l0 -38 -90 0 -90 0
0 33 c0 52 21 81 60 87 53 8 89 0 105 -23z"/>
<path d="M5882 8333 l3 -38 150 2 c83 1 146 0 140 -3 -5 -3 -73 -29 -150 -57
l-140 -53 -3 -47 -3 -47 225 0 226 0 0 35 0 34 -157 3 -158 3 155 56 155 55 3
47 3 47 -226 0 -226 0 3 -37z"/>
<path d="M3610 8295 l0 -45 118 0 117 -1 -115 -37 -115 -38 -3 -57 -3 -57 211
0 210 0 0 45 0 45 -127 1 -128 0 125 38 125 38 3 57 3 56 -211 0 -210 0 0 -45z"/>
<path d="M4710 8180 l0 -100 -102 0 -103 0 0 87 0 88 -32 3 -33 3 0 -90 0 -91
-85 0 -85 0 0 95 0 95 -30 0 -30 0 0 -130 0 -130 280 0 280 0 0 129 c0 125 -1
129 -22 135 -13 3 -26 6 -30 6 -5 0 -8 -45 -8 -100z"/>
<path d="M7575 8246 c-86 -37 -127 -137 -128 -310 -1 -243 59 -338 204 -324
33 4 58 13 73 27 l24 23 7 -22 c6 -18 13 -21 56 -18 27 2 49 6 49 11 0 4 0 84
0 177 l0 170 -100 0 -100 0 0 -55 c0 -55 0 -55 31 -55 l31 0 -4 -56 c-8 -96
-72 -126 -104 -48 -17 40 -19 269 -3 327 19 68 89 73 104 7 7 -30 7 -30 76
-30 69 0 69 0 69 28 0 47 -41 115 -85 139 -47 26 -150 31 -200 9z"/>
<path d="M10535 8244 c-47 -24 -71 -52 -97 -107 -21 -48 -23 -66 -23 -213 0
-159 0 -161 30 -219 35 -67 76 -95 143 -95 47 0 112 23 112 39 0 6 5 11 10 11
6 0 10 -9 10 -20 0 -18 7 -20 55 -20 l55 0 0 180 0 180 -105 0 -105 0 0 -55
c0 -55 0 -55 31 -55 l31 0 -4 -61 c-3 -45 -10 -65 -23 -75 -69 -51 -104 45
-92 255 6 109 20 149 55 158 29 7 62 -25 62 -58 0 -17 8 -19 69 -19 39 0 72 3
74 8 9 15 -21 104 -44 129 -13 14 -38 32 -56 39 -44 19 -150 18 -188 -2z"/>
<path d="M7950 7935 l0 -315 70 0 70 0 0 130 0 130 33 0 c48 0 67 -25 67 -87
0 -27 3 -78 6 -112 l7 -61 68 0 69 0 0 103 c-1 110 -16 173 -48 195 -19 12
-19 14 8 41 54 54 62 155 16 223 -38 57 -73 68 -228 68 l-138 0 0 -315z m234
189 c21 -21 21 -92 -1 -116 -10 -11 -30 -18 -55 -18 l-38 0 0 75 0 75 39 0
c23 0 46 -7 55 -16z"/>
<path d="M8420 7935 l0 -315 170 0 c191 0 170 -9 185 83 l6 37 -111 0 -110 0
0 75 0 75 95 0 95 0 0 60 0 60 -95 0 -95 0 0 60 0 60 100 0 100 0 0 60 0 60
-170 0 -170 0 0 -315z"/>
<path d="M8840 7935 l0 -315 169 0 c94 0 172 3 174 8 3 4 8 31 12 60 l7 52
-111 0 -112 0 3 73 3 72 98 3 98 3 -3 57 -3 57 -97 3 -98 3 0 59 0 60 100 0
100 0 0 60 0 60 -170 0 -170 0 0 -315z"/>
<path d="M9230 8190 l0 -60 65 0 65 0 0 -255 0 -255 70 0 70 0 0 255 0 254 63
3 62 3 3 58 3 57 -201 0 -200 0 0 -60z"/>
<path d="M9680 7935 l0 -315 75 0 75 0 0 315 0 315 -75 0 -75 0 0 -315z"/>
<path d="M9920 7935 l0 -315 65 0 65 0 2 195 3 196 59 -196 59 -195 79 0 78 0
0 315 0 315 -66 0 -66 0 3 -190 c2 -105 1 -183 -3 -173 -4 10 -31 95 -60 188
l-54 170 -82 3 -82 3 0 -316z"/>
<path d="M6260 7961 l0 -81 -65 0 -65 0 0 76 0 75 -32 -3 -33 -3 -3 -72 -3
-73 -54 0 -55 0 0 75 0 75 -35 0 -35 0 0 -115 0 -115 225 0 226 0 -3 118 -3
117 -32 3 -33 3 0 -80z"/>
<path d="M4950 7950 l0 -80 360 0 360 0 0 80 0 80 -360 0 -360 0 0 -80z"/>
<path d="M3950 7951 l0 -71 -50 0 -50 0 0 65 0 65 -40 0 -40 0 0 -65 0 -65
-40 0 -40 0 0 65 0 65 -40 0 -40 0 0 -115 0 -115 210 0 211 0 -3 118 -3 117
-37 3 -38 3 0 -70z"/>
<path d="M4710 7856 l0 -96 -247 -2 -248 -3 -3 -32 -3 -33 281 0 281 0 -3 128
-3 127 -27 3 -28 3 0 -95z"/>
<path d="M5113 7790 c-130 -26 -163 -87 -163 -301 l0 -139 360 0 360 0 0 80 0
80 -140 0 -140 0 0 53 c0 64 -16 123 -43 161 -37 52 -147 83 -234 66z m127
-180 c13 -13 20 -33 20 -60 l0 -41 -92 3 -93 3 1 39 c2 54 30 76 95 76 36 0
54 -5 69 -20z"/>
<path d="M5882 7718 l3 -42 175 -35 c146 -30 169 -37 140 -43 -152 -31 -288
-60 -302 -64 -22 -6 -26 -84 -5 -84 6 0 108 23 225 52 l212 52 0 48 c0 46 -1
47 -37 57 -86 23 -403 101 -408 101 -3 0 -5 -19 -3 -42z"/>
<path d="M3610 7651 l0 -68 107 -17 c59 -9 109 -18 110 -20 2 -1 -36 -8 -84
-15 -146 -20 -133 -11 -133 -91 l0 -70 210 0 210 0 0 45 0 45 -132 0 c-72 0
-129 2 -127 4 2 2 49 9 104 15 160 19 155 17 155 61 0 44 3 43 -120 60 -160
22 -163 28 -17 29 l137 1 0 45 0 45 -210 0 -210 0 0 -69z"/>
<path d="M1256 7640 c-78 -25 -111 -99 -111 -250 0 -85 4 -113 20 -145 28 -56
76 -85 139 -85 86 0 148 47 158 119 3 22 0 24 -40 24 -39 0 -45 -3 -60 -34
-29 -59 -93 -48 -112 19 -13 50 -12 188 3 232 23 65 93 73 112 12 9 -30 12
-32 57 -32 48 0 48 0 42 28 -11 45 -31 78 -59 96 -31 20 -109 29 -149 16z"/>
<path d="M2845 7635 c-79 -28 -108 -96 -107 -248 1 -119 25 -181 82 -209 97
-49 226 5 233 97 2 26 0 28 -43 28 -38 0 -45 -3 -48 -20 -4 -29 -36 -55 -63
-51 -12 2 -31 16 -43 31 -18 25 -21 42 -21 135 0 116 13 159 51 173 29 10 67
-11 74 -41 5 -22 12 -25 54 -28 l49 -3 -7 32 c-8 41 -29 74 -59 94 -35 22
-106 27 -152 10z"/>
<path d="M1530 7405 l0 -235 50 0 50 0 0 105 0 105 60 0 60 0 0 -105 0 -105
50 0 50 0 0 235 0 235 -50 0 -50 0 0 -95 0 -95 -60 0 -60 0 0 95 0 95 -50 0
-50 0 0 -235z"/>
<path d="M1942 7448 c3 -217 10 -243 72 -272 47 -22 137 -21 185 4 62 31 71
67 71 280 l0 180 -50 0 -50 0 0 -188 c0 -170 -2 -191 -18 -205 -25 -23 -68
-21 -92 3 -19 19 -20 33 -20 205 l0 185 -51 0 -51 0 4 -192z"/>
<path d="M2360 7405 l0 -235 45 0 45 0 0 100 0 100 38 0 c64 0 76 -16 82 -112
l5 -83 49 -3 c47 -3 48 -2 42 20 -3 13 -6 53 -6 90 0 56 -4 71 -25 96 -20 24
-22 31 -11 35 27 11 49 67 43 114 -9 85 -60 113 -207 113 l-100 0 0 -235z
m195 151 c13 -9 19 -26 19 -51 0 -47 -23 -65 -81 -65 l-43 0 0 65 0 65 43 0
c24 0 52 -6 62 -14z"/>
<path d="M3130 7405 l0 -235 45 0 45 0 0 105 0 105 65 0 65 0 0 -105 0 -105
45 0 45 0 0 235 0 235 -45 0 -44 0 -3 -92 -3 -93 -62 -3 -63 -3 0 96 0 95 -45
0 -45 0 0 -235z"/>
<path d="M4356 7589 c-103 -24 -138 -75 -144 -206 l-4 -93 282 0 282 0 -4 88
c-7 133 -43 182 -157 208 -63 15 -196 17 -255 3z m287 -84 c45 -21 67 -59 67
-115 l0 -40 -217 2 -218 3 -3 37 c-6 66 30 110 103 129 54 14 226 4 268 -16z"/>
<path d="M8375 7451 c-71 -18 -116 -64 -140 -143 -20 -69 -20 -276 0 -344 26
-90 114 -144 209 -129 81 13 135 68 152 154 l7 31 -55 0 c-53 0 -55 -1 -64
-31 -5 -18 -21 -41 -36 -52 -23 -17 -32 -19 -52 -9 -50 22 -61 63 -61 217 0
123 2 144 21 175 35 60 106 55 125 -10 l12 -40 54 0 c60 0 63 5 39 73 -24 67
-67 100 -141 110 -22 3 -53 2 -70 -2z"/>
<path d="M11905 7451 c-72 -18 -117 -65 -141 -148 -12 -41 -15 -86 -12 -181 3
-112 6 -134 30 -184 30 -64 68 -94 133 -104 94 -14 180 39 212 129 23 66 26
290 4 352 -36 105 -128 160 -226 136z m82 -99 c31 -20 46 -86 45 -207 0 -140
-16 -198 -60 -213 -67 -23 -102 31 -110 169 -10 170 18 259 80 259 18 0 38 -4
45 -8z"/>
<path d="M8670 7145 l0 -305 159 0 159 0 6 31 c14 71 18 69 -104 69 l-110 0 0
85 0 85 101 0 100 0 -3 48 -3 47 -97 3 -98 3 0 69 0 70 105 0 105 0 0 50 0 50
-160 0 -160 0 0 -305z"/>
<path d="M9070 7145 l0 -306 158 3 157 3 3 48 3 47 -105 0 -106 0 0 255 0 255
-55 0 -55 0 0 -305z"/>
<path d="M9450 7145 l0 -305 159 0 c156 0 159 0 165 23 3 12 6 34 6 50 l0 27
-110 0 -110 0 0 85 0 85 100 0 100 0 0 50 0 50 -100 0 -100 0 0 70 0 70 105 0
105 0 0 50 0 50 -160 0 -160 0 0 -305z"/>
<path d="M9850 7146 l0 -306 98 0 c203 1 275 48 275 180 0 64 -22 114 -60 133
-26 14 -26 15 -6 25 23 13 53 79 53 117 0 47 -31 104 -68 127 -32 19 -54 23
-164 26 l-128 4 0 -306z m230 194 c24 -24 26 -77 4 -108 -12 -18 -25 -22 -70
-22 l-54 0 0 75 0 75 50 0 c37 0 55 -5 70 -20z m5 -245 c20 -19 25 -35 25 -71
0 -69 -26 -94 -97 -94 l-53 0 0 95 0 95 50 0 c41 0 56 -5 75 -25z"/>
<path d="M10305 7437 c-3 -7 -4 -143 -3 -302 l3 -290 53 -3 52 -3 0 130 0 131
49 0 c73 0 91 -27 91 -134 0 -123 3 -128 63 -124 l51 3 -3 104 c-3 111 -11
144 -42 177 -19 20 -19 21 2 40 32 29 49 68 49 114 0 80 -43 139 -115 159 -58
16 -244 15 -250 -2z m230 -102 c17 -16 25 -35 25 -60 0 -55 -35 -85 -100 -85
l-50 0 0 85 0 85 50 0 c41 0 56 -5 75 -25z"/>
<path d="M10851 7413 c-26 -99 -131 -545 -131 -559 0 -12 11 -14 53 -12 l52 3
16 75 15 75 67 3 c77 3 77 3 97 -100 l11 -58 54 0 c30 0 56 3 58 8 2 4 -28
140 -68 302 l-71 295 -72 3 -71 3 -10 -38z m105 -201 c13 -59 23 -110 23 -114
1 -5 -22 -8 -50 -8 -51 0 -51 0 -46 28 3 15 13 69 23 119 10 51 20 90 23 88 3
-3 15 -54 27 -113z"/>
<path d="M11110 7400 l0 -50 65 0 65 0 2 -252 3 -253 53 -3 52 -3 0 255 0 256
65 0 65 0 0 50 0 50 -185 0 -185 -1 0 -49z"/>
<path d="M11550 7145 l0 -306 53 3 52 3 0 300 0 300 -52 3 -53 3 0 -306z"/>
<path d="M12240 7145 l0 -306 48 3 47 3 0 212 c0 116 2 210 4 207 2 -2 39 -97
81 -211 l76 -208 62 -3 62 -3 0 306 0 305 -50 0 -50 0 -2 -200 -3 -199 -75
197 -76 197 -62 3 -62 3 0 -306z"/>
<path d="M5977 7406 c-75 -27 -97 -68 -97 -181 l0 -75 225 0 225 0 0 84 c0
102 -21 141 -90 168 -55 21 -208 23 -263 4z m225 -76 c41 -12 68 -42 68 -77 0
-23 0 -23 -160 -23 l-160 0 0 28 c0 58 39 80 150 81 36 1 82 -4 102 -9z"/>
<path d="M7480 7362 l0 -57 130 -45 130 -44 -130 -45 -130 -45 0 -58 c0 -32 2
-58 5 -58 3 0 86 34 184 75 l179 75 106 0 106 0 0 55 0 55 -114 0 c-112 0
-116 1 -218 44 -56 24 -136 58 -175 75 l-73 30 0 -57z"/>
<path d="M3885 7315 c-60 -13 -147 -32 -193 -41 l-83 -17 3 -70 3 -70 190 -38
c105 -21 198 -38 208 -39 14 0 17 9 17 50 0 50 0 50 -32 50 -47 0 -60 12 -56
51 2 25 8 35 23 37 65 9 65 10 65 62 0 59 9 57 -145 25z m-30 -128 c0 -21 1
-20 -83 -11 l-67 8 60 12 c74 15 90 13 90 -9z"/>
<path d="M5388 7260 c-49 -15 -93 -59 -142 -142 -65 -110 -82 -128 -122 -128
-38 0 -64 22 -64 54 0 29 17 44 58 52 l32 7 0 80 0 80 -42 -7 c-111 -18 -168
-89 -168 -208 0 -144 68 -217 203 -218 97 0 145 34 213 150 57 99 84 125 133
125 49 0 71 -19 71 -60 0 -38 -17 -55 -63 -64 l-32 -7 -3 -83 -3 -83 43 7
c125 21 178 90 178 230 0 110 -37 174 -122 210 -39 16 -125 19 -170 5z"/>
<path d="M4212 7148 l3 -33 215 1 c133 1 207 -2 195 -7 -11 -5 -108 -44 -215
-87 l-195 -78 -3 -42 -3 -42 281 0 281 0 -3 33 -3 32 -225 -2 c-142 -1 -218 2
-205 8 11 5 112 44 225 88 l205 79 3 41 3 41 -281 0 -281 0 3 -32z"/>
<path d="M6105 7055 l-220 -52 0 -53 0 -54 205 -47 c113 -26 213 -48 223 -48
13 -1 17 7 17 38 l0 38 -52 9 -53 9 -3 52 c-3 56 -4 55 71 68 36 6 37 7 37 50
0 25 -1 45 -2 44 -2 -1 -102 -25 -223 -54z m45 -110 c0 -32 -2 -35 -22 -30
-13 3 -54 12 -93 19 -55 10 -65 15 -45 20 60 15 107 24 133 25 24 1 27 -2 27
-34z"/>
<path d="M7760 6991 l-275 -67 -3 -70 -3 -70 283 -67 c156 -37 287 -67 291
-67 4 0 7 23 5 52 l-3 52 -56 11 c-91 19 -89 16 -89 89 l0 65 58 11 c97 19 92
15 92 76 0 37 -4 54 -12 53 -7 -1 -137 -31 -288 -68z m60 -141 c0 -35 -4 -48
-12 -46 -7 3 -53 12 -103 21 -49 9 -97 19 -105 22 -12 4 157 46 208 52 8 1 12
-15 12 -49z"/>
<path d="M3610 6953 l0 -46 123 6 122 6 -120 -39 -120 -38 -3 -56 -3 -56 211
0 210 0 0 45 0 45 -122 1 -123 0 120 37 120 37 3 53 3 52 -210 0 -211 0 0 -47z"/>
<path d="M1241 6688 l109 -263 0 -162 0 -163 80 0 80 0 0 159 0 159 101 243
c55 134 105 254 110 267 8 22 8 22 -74 22 l-82 0 -59 -178 c-33 -97 -63 -181
-67 -185 -3 -5 -14 16 -24 45 -9 29 -37 113 -62 186 l-45 132 -88 0 -87 0 108
-262z"/>
<path d="M1782 6607 l3 -343 30 -60 c26 -50 38 -63 88 -88 49 -25 68 -29 139
-29 124 0 192 36 241 128 21 38 22 54 25 388 l3 347 -80 0 -80 0 -1 -292 c0
-161 0 -312 0 -335 0 -63 -38 -103 -97 -103 -109 0 -113 13 -113 410 l0 320
-81 0 -80 0 3 -343z"/>
<path d="M2440 6525 l0 -425 220 0 220 0 0 28 c0 15 3 44 6 65 l7 37 -147 0
-146 0 0 360 0 360 -80 0 -80 0 0 -425z"/>
<path d="M2960 6525 l0 -425 225 0 c213 0 225 1 225 19 0 10 3 39 6 65 l7 46
-152 0 -151 0 0 125 0 125 135 0 135 0 0 65 0 65 -135 0 -135 0 0 105 0 105
140 0 140 0 0 65 0 65 -220 0 -220 0 0 -425z"/>
<path d="M4473 6732 l-263 -66 0 -43 c0 -40 2 -43 38 -52 100 -27 496 -121
509 -121 10 0 13 9 11 32 -3 32 -4 33 -86 51 l-83 19 3 70 3 71 83 19 82 20 0
34 c0 26 -4 34 -17 33 -10 -1 -136 -31 -280 -67z m67 -107 c0 -37 -4 -55 -12
-55 -24 0 -228 45 -228 50 0 4 184 50 233 59 4 0 7 -24 7 -54z"/>
<path d="M3643 6656 c-27 -23 -28 -28 -31 -130 l-4 -106 211 0 211 0 0 45 0
45 -80 0 c-65 0 -82 3 -87 16 -13 35 10 49 91 52 l76 3 0 50 0 51 -84 -3 c-64
-3 -89 -8 -104 -22 -20 -18 -21 -18 -43 2 -34 31 -118 29 -156 -3z m135 -114
l3 -33 -48 3 c-37 2 -49 7 -51 21 -6 30 18 48 57 45 33 -3 36 -6 39 -36z"/>
<path d="M9795 6661 c-53 -32 -68 -58 -73 -120 -7 -92 25 -135 145 -195 28
-14 59 -36 67 -48 36 -51 7 -128 -49 -128 -31 0 -75 41 -75 70 0 18 -6 20 -56
20 l-56 0 7 -32 c18 -87 66 -128 156 -135 118 -8 192 54 192 161 0 85 -35 133
-132 182 -30 15 -65 37 -78 50 -44 44 -20 114 40 114 28 0 57 -32 57 -62 0
-15 9 -18 50 -18 47 0 50 2 50 25 0 43 -36 101 -74 119 -47 22 -133 21 -171
-3z"/>
<path d="M8230 6385 l0 -285 105 0 c149 0 199 23 231 106 24 62 12 128 -30
170 l-33 33 25 24 c53 54 36 177 -30 217 -28 17 -50 20 -150 20 l-118 0 0
-285z m208 189 c23 -16 31 -75 13 -103 -9 -14 -106 -33 -116 -23 -3 3 -5 36
-5 74 l0 68 43 0 c23 0 53 -7 65 -16z m12 -234 c15 -15 20 -33 20 -70 0 -37
-5 -55 -20 -70 -15 -15 -33 -20 -70 -20 l-50 0 0 90 0 90 50 0 c37 0 55 -5 70
-20z"/>
<path d="M8650 6385 l0 -286 148 3 147 3 3 43 3 42 -100 0 -101 0 0 80 0 80
90 0 90 0 0 45 0 45 -90 0 -90 0 0 70 0 70 95 0 95 0 0 45 0 45 -145 0 -145 0
0 -285z"/>
<path d="M9020 6385 l0 -285 145 0 c144 0 145 0 145 23 0 12 3 32 6 45 6 22 5
22 -95 22 l-101 0 0 240 0 240 -50 0 -50 0 0 -285z"/>
<path d="M9370 6385 l0 -285 145 0 c116 0 145 3 145 14 0 7 3 28 6 45 l7 31
-102 0 -101 0 0 240 0 240 -50 0 -50 0 0 -285z"/>
<path d="M10280 6586 l0 -64 43 -6 c23 -3 107 -13 187 -22 80 -9 146 -17 148
-19 1 -1 -39 -7 -90 -14 -51 -7 -115 -16 -143 -21 -27 -5 -71 -11 -97 -15
l-48 -6 0 -59 0 -58 73 -12 c39 -6 111 -18 160 -26 48 -8 98 -14 112 -14 14 0
25 -4 25 -10 0 -5 -21 -10 -47 -10 -27 0 -106 -7 -178 -15 -71 -8 -133 -15
-137 -15 -5 0 -8 -31 -8 -70 0 -54 3 -70 14 -70 23 0 560 91 568 96 5 3 8 34
8 69 0 73 12 65 -130 90 -52 9 -120 21 -150 27 l-55 11 131 22 c72 12 147 25
168 29 l36 7 0 64 c0 35 -4 67 -10 70 -9 6 -548 105 -570 105 -6 0 -10 -27
-10 -64z"/>
<path d="M5733 6611 c-47 -22 -71 -53 -80 -104 -12 -77 30 -135 134 -184 85
-40 113 -91 77 -141 -22 -32 -76 -30 -103 4 -12 15 -21 33 -21 40 0 10 -15 14
-51 14 l-52 0 6 -36 c9 -52 33 -83 80 -105 75 -34 174 -20 224 33 23 24 28 39
31 97 4 65 3 70 -29 105 -18 21 -60 51 -93 68 -81 40 -96 55 -96 93 0 64 73
77 100 18 14 -30 19 -33 64 -33 l49 0 -6 36 c-16 94 -132 141 -234 95z"/>
<path d="M4950 6355 l0 -265 50 0 50 0 0 115 0 115 90 0 90 0 0 40 0 40 -90 0
-90 0 0 65 0 64 93 3 92 3 3 43 3 42 -145 0 -146 0 0 -265z"/>
<path d="M5300 6355 l0 -265 145 0 c131 0 145 2 145 18 0 9 3 27 6 40 6 22 5
22 -95 22 l-101 0 0 75 0 74 88 3 87 3 3 43 3 42 -90 0 -91 0 0 60 0 59 93 3
92 3 3 43 3 42 -145 0 -146 0 0 -265z"/>
<path d="M6010 6575 l0 -45 60 0 60 0 0 -220 0 -220 50 0 50 0 0 220 0 220 60
0 60 0 0 45 0 45 -170 0 -170 0 0 -45z"/>
<path d="M6410 6355 l0 -265 50 0 50 0 0 265 0 265 -50 0 -50 0 0 -265z"/>
<path d="M6560 6609 c0 -6 11 -52 24 -102 14 -51 41 -155 62 -232 20 -77 39
-150 42 -162 4 -21 10 -23 66 -23 l62 0 13 53 c8 28 38 143 67 254 30 110 54
206 54 213 0 7 -18 10 -52 8 l-52 -3 -22 -100 c-36 -164 -65 -289 -68 -292 -2
-2 -11 36 -20 84 -9 49 -29 139 -44 201 l-26 112 -53 0 c-32 0 -53 -4 -53 -11z"/>
<path d="M7000 6355 l0 -265 144 0 c155 0 156 0 156 55 0 24 -2 24 -97 27
l-98 3 -3 73 -3 72 91 0 90 0 0 45 0 45 -90 0 -90 0 0 60 0 60 95 0 95 0 0 45
0 45 -145 0 -145 0 0 -265z"/>
<path d="M7615 6597 c-107 -35 -135 -85 -135 -240 l0 -107 291 0 291 0 -3 113
c-4 103 -6 117 -31 154 -45 68 -99 87 -248 90 -82 2 -139 -2 -165 -10z m295
-113 c48 -19 60 -38 60 -94 l0 -40 -202 2 -203 3 2 43 c4 81 43 101 195 102
77 0 119 -5 148 -16z"/>
<path d="M4616 6403 c-3 -4 -6 -19 -6 -34 0 -23 6 -29 42 -41 54 -17 76 -54
58 -98 -19 -47 -82 -65 -220 -65 -163 0 -224 27 -222 96 1 40 16 57 63 69 34
9 39 14 39 40 0 27 -3 30 -31 30 -126 0 -181 -163 -85 -248 54 -47 96 -57 241
-57 141 0 185 10 235 52 56 46 61 144 11 203 -25 29 -112 66 -125 53z"/>
<path d="M3718 6357 c-66 -19 -94 -41 -108 -83 -27 -81 11 -159 89 -183 50
-14 193 -14 243 1 58 17 98 68 98 124 0 64 -23 102 -77 126 -58 25 -181 33
-245 15z m217 -107 c32 -12 30 -39 -5 -57 -32 -16 -190 -17 -225 -1 -31 14
-33 46 -2 58 30 12 200 12 232 0z"/>
<path d="M7480 6090 l0 -50 290 0 290 0 0 50 0 50 -290 0 -290 0 0 -50z"/>
<path d="M10474 6020 c-140 -19 -204 -82 -204 -197 1 -71 30 -126 82 -156 123
-71 380 -60 468 20 78 69 75 219 -5 282 -58 45 -214 68 -341 51z m277 -166
c28 -28 18 -59 -23 -73 -44 -16 -287 -14 -318 2 -16 8 -26 23 -28 40 -6 46 37
58 205 55 130 -3 144 -5 164 -24z"/>
<path d="M7970 5880 l0 -100 -245 0 -245 0 0 -55 0 -55 290 0 290 0 0 149 c0
146 0 149 -22 155 -13 3 -33 6 -45 6 -22 0 -23 -3 -23 -100z"/>
<path d="M8230 5686 l0 -266 50 0 50 0 0 115 0 115 60 0 60 0 0 -116 0 -115
50 3 51 3 0 260 0 260 -48 0 -48 0 -3 -102 -3 -103 -59 0 -59 0 -3 103 -3 102
-47 3 -48 3 0 -265z"/>
<path d="M8721 5913 c-6 -21 -29 -114 -51 -208 -22 -93 -46 -195 -54 -225
l-13 -55 40 -3 c52 -4 67 3 67 30 0 13 5 40 11 61 l10 37 59 0 c57 0 60 -1 66
-27 24 -109 20 -103 74 -103 28 0 50 3 50 8 0 8 -97 408 -115 472 l-12 45 -61
3 -61 3 -10 -38z m87 -150 c7 -38 15 -80 18 -95 6 -27 5 -28 -36 -28 -39 0
-42 2 -37 23 3 12 11 55 18 95 7 39 16 72 19 72 3 0 11 -30 18 -67z"/>
<path d="M9030 5686 l0 -266 50 0 50 0 0 104 0 103 58 6 c112 10 156 55 156
160 -1 62 -17 93 -67 131 -21 16 -47 20 -137 24 l-110 5 0 -267z m190 166 c17
-14 23 -29 23 -62 0 -52 -27 -80 -79 -80 l-34 0 0 80 0 80 34 0 c19 0 44 -8
56 -18z"/>
<path d="M9410 5686 l0 -266 50 0 50 0 0 104 0 103 58 6 c112 10 156 55 156
160 -1 62 -17 93 -67 131 -21 16 -47 20 -137 24 l-110 5 0 -267z m189 167 c12
-10 24 -35 27 -55 8 -49 -28 -88 -81 -88 l-35 0 0 80 0 80 34 0 c19 0 43 -8
55 -17z"/>
<path d="M9740 5946 c0 -2 32 -78 70 -170 l70 -166 0 -95 0 -95 50 0 50 0 0
98 0 97 70 164 c39 91 70 166 70 168 0 2 -24 3 -52 1 l-53 -3 -42 -115 c-22
-63 -43 -108 -46 -100 -9 28 -36 105 -57 163 l-21 57 -55 0 c-30 0 -54 -2 -54
-4z"/>
<path d="M794 5901 c-47 -29 -64 -59 -64 -116 0 -67 26 -108 92 -142 76 -41
100 -67 96 -106 -3 -28 -7 -32 -36 -35 -29 -3 -35 0 -45 27 -11 29 -14 31 -64
31 -51 0 -53 -1 -53 -27 0 -77 84 -131 182 -120 93 11 143 72 134 160 -7 62
-31 94 -103 136 -32 19 -66 41 -75 49 -22 18 -23 55 -3 72 21 17 45 5 58 -30
11 -28 15 -30 65 -30 l54 0 -7 38 c-3 20 -13 48 -22 60 -32 51 -150 69 -209
33z"/>
<path d="M1120 5688 c-24 -123 -46 -233 -48 -246 -4 -22 -2 -23 54 -20 43 2
59 7 61 18 11 91 11 90 58 90 43 0 44 -1 50 -37 13 -75 11 -73 76 -73 57 0 59
1 54 23 -8 34 -95 457 -95 462 0 3 -37 5 -83 5 l-83 0 -44 -222z m146 -5 c6
-63 6 -63 -20 -63 -31 0 -31 3 -14 115 11 72 13 77 19 45 4 -19 11 -63 15 -97z"/>
<path d="M1470 5665 l0 -245 50 0 50 0 1 153 0 152 47 -152 46 -153 63 0 63 0
0 245 0 245 -50 0 -50 0 -1 -142 -1 -143 -46 143 -45 142 -64 0 -63 0 0 -245z"/>
<path d="M1830 5865 l0 -45 50 0 50 0 0 -200 0 -200 60 0 60 0 0 200 0 200 45
0 45 0 0 45 0 45 -155 0 -155 0 0 -45z"/>
<path d="M2215 5898 c-2 -7 -23 -107 -45 -223 -23 -115 -44 -220 -47 -232 -5
-22 -2 -23 51 -23 37 0 58 4 60 13 2 6 8 30 12 52 9 38 11 40 51 43 45 3 45 3
58 -70 l6 -38 61 0 c57 0 60 1 55 23 -4 12 -24 112 -46 222 -23 110 -43 210
-46 223 -5 21 -11 22 -86 22 -55 0 -81 -4 -84 -12z m95 -163 c5 -39 12 -80 15
-92 5 -20 1 -23 -25 -23 -17 0 -30 5 -30 12 0 20 24 178 26 175 2 -1 8 -34 14
-72z"/>
<path d="M2657 5903 c-4 -3 -7 -271 -7 -595 l0 -589 103 3 102 3 -2 455 c-1
250 -5 477 -8 505 -3 27 -3 46 1 42 4 -4 46 -231 94 -504 l86 -498 101 -3 c81
-2 102 0 106 12 5 12 94 457 171 856 l24 125 1 -497 1 -498 105 0 105 0 0 594
0 595 -160 0 c-93 0 -162 -4 -166 -10 -7 -13 -151 -693 -160 -759 -4 -28 -9
-48 -12 -45 -3 3 -16 67 -29 143 -42 250 -115 637 -125 655 -8 15 -26 17 -167
17 -87 0 -161 -3 -164 -7z"/>
<path d="M3865 5898 c-3 -7 -4 -274 -3 -593 l3 -580 325 0 325 0 12 65 c7 36
12 77 13 93 l0 27 -225 0 -225 0 0 170 0 170 205 0 205 0 0 90 0 90 -205 0
-205 0 0 145 0 145 209 0 210 0 3 91 c2 50 1 92 -1 94 -2 2 -147 4 -322 5
-250 0 -320 -2 -324 -12z"/>
<path d="M4685 5898 c-3 -7 -4 -274 -3 -593 l3 -580 113 -3 112 -3 0 257 0
257 88 -5 c169 -10 183 -30 193 -288 3 -102 10 -193 14 -202 6 -16 22 -18 117
-18 l110 0 -6 28 c-3 15 -8 104 -12 197 -7 219 -19 265 -85 327 l-50 47 30 15
c82 43 125 143 119 275 -3 74 -9 96 -34 142 -35 62 -98 110 -177 135 -71 22
-524 32 -532 12z m445 -186 c50 -25 75 -74 74 -147 -1 -118 -48 -157 -196
-163 l-98 -4 0 166 0 166 93 0 c68 0 101 -5 127 -18z"/>
<path d="M5610 5314 l0 -594 110 0 110 0 0 255 0 255 68 0 c80 0 139 -15 168
-42 32 -29 42 -85 48 -263 3 -88 8 -170 12 -182 6 -22 11 -23 114 -23 l107 0
-4 143 c-8 287 -25 353 -104 421 -24 20 -38 36 -32 36 25 0 102 82 123 132 47
107 26 262 -46 346 -75 88 -192 114 -506 111 l-168 -1 0 -594z m451 393 c67
-44 88 -140 49 -225 -27 -60 -77 -81 -192 -82 l-88 0 0 165 0 165 99 0 c85 0
102 -3 132 -23z"/>
<path d="M6420 5902 c0 -4 71 -165 157 -357 l157 -350 6 -235 5 -235 113 -3
112 -3 0 217 0 216 165 373 c91 205 165 375 165 379 0 3 -52 6 -115 6 l-114 0
-14 -27 c-8 -16 -54 -138 -103 -271 l-88 -244 -14 44 c-32 97 -174 473 -184
485 -12 14 -248 19 -248 5z"/>
<path d="M7660 5583 c-128 -21 -190 -84 -190 -190 0 -104 68 -165 208 -184
107 -16 244 0 304 33 67 37 83 67 83 153 0 85 -16 116 -80 152 -63 35 -223 53
-325 36z m282 -130 c55 -32 51 -89 -9 -119 -31 -15 -63 -18 -168 -19 -113 0
-134 3 -165 20 -28 17 -36 28 -38 56 -6 68 52 90 230 85 93 -2 123 -7 150 -23z"/>
<path d="M10280 5490 l0 -60 168 0 167 -1 -140 -45 c-217 -70 -195 -54 -195
-140 l0 -74 295 0 295 0 0 60 0 60 -182 1 -183 1 80 24 c44 14 125 40 180 57
l100 32 3 73 3 72 -296 0 -295 0 0 -60z"/>
<path d="M8307 5255 c-70 -36 -103 -132 -95 -277 6 -104 27 -168 66 -198 35
-28 120 -28 156 1 l26 20 0 -20 c0 -17 6 -21 35 -21 l35 0 0 145 0 146 -77 -3
-78 -3 -3 -37 c-3 -37 -3 -38 32 -38 35 0 36 -1 36 -40 0 -76 -40 -117 -90
-90 -32 17 -42 56 -42 171 -1 118 17 175 57 185 31 8 63 -11 71 -41 5 -22 12
-25 50 -25 33 0 44 4 44 15 0 34 -31 86 -62 105 -40 24 -120 27 -161 5z"/>
<path d="M8620 5015 l0 -255 45 0 45 0 0 255 0 255 -45 0 -45 0 0 -255z"/>
<path d="M8770 5254 c0 -9 27 -121 60 -249 33 -128 60 -235 60 -239 0 -3 24
-6 54 -6 l53 0 27 103 c69 264 102 398 97 402 -2 3 -24 5 -47 5 l-43 0 -11
-57 c-7 -32 -25 -118 -41 -190 -16 -73 -29 -136 -30 -140 0 -5 -19 80 -42 187
l-42 195 -47 3 c-40 3 -48 0 -48 -14z"/>
<path d="M9180 5015 l0 -255 45 0 45 0 0 255 0 255 -45 0 -45 0 0 -255z"/>
<path d="M9370 5016 l0 -256 40 0 40 0 0 183 1 182 67 -180 67 -180 50 0 50 0
0 250 0 250 -40 0 -40 0 0 -167 c0 -91 -2 -165 -4 -162 -2 2 -31 77 -65 166
l-61 163 -52 3 -53 3 0 -255z"/>
<path d="M9850 5248 c-18 -13 -42 -40 -53 -60 -27 -53 -38 -163 -27 -253 16
-128 55 -175 144 -175 38 0 58 5 73 19 21 20 21 20 26 0 4 -16 12 -20 39 -17
l33 3 0 140 0 140 -77 3 -78 3 0 -40 c0 -38 2 -40 33 -43 31 -3 32 -4 29 -48
-4 -57 -25 -90 -57 -90 -51 0 -75 59 -74 185 1 101 16 155 51 174 23 13 28 13
52 -2 14 -10 26 -26 26 -37 0 -17 7 -20 49 -20 l49 0 -7 33 c-17 74 -61 107
-144 107 -40 0 -63 -6 -87 -22z"/>
<path d="M244 5250 c-31 -12 -72 -66 -83 -108 -28 -104 -22 -260 14 -335 8
-18 30 -41 47 -52 41 -24 116 -25 152 -1 35 22 66 74 66 109 0 22 -4 27 -25
27 -21 0 -29 -9 -45 -45 -29 -68 -87 -76 -126 -17 -41 60 -45 254 -7 330 35
70 115 60 137 -17 7 -25 14 -31 37 -31 24 0 29 4 29 25 0 35 -24 79 -56 104
-28 22 -99 28 -140 11z"/>
<path d="M513 5244 c-2 -7 -3 -104 -1 -216 3 -222 7 -237 65 -275 39 -26 133
-24 170 3 58 43 63 68 61 294 l-3 205 -30 0 -30 0 -5 -218 c-5 -202 -7 -220
-24 -233 -30 -21 -89 -18 -112 7 -17 19 -20 43 -24 232 l-5 211 -28 2 c-16 0
-31 -5 -34 -12z"/>
<path d="M910 5000 l0 -260 119 0 c99 0 120 3 125 16 16 41 10 44 -89 44 l-95
0 0 228 0 228 -30 2 -30 2 0 -260z"/>
<path d="M1106 5253 c-3 -4 -6 -17 -6 -30 0 -22 4 -23 60 -23 l60 0 0 -230 0
-230 30 0 30 0 2 228 3 227 58 3 c55 3 57 4 57 31 l0 29 -144 1 c-79 0 -146
-3 -150 -6z"/>
<path d="M1453 5244 c-2 -7 -3 -104 -1 -216 3 -222 7 -237 65 -275 39 -26 133
-24 170 3 58 43 63 68 61 294 l-3 205 -30 0 -30 0 -5 -218 c-5 -202 -7 -220
-24 -233 -30 -21 -89 -18 -112 7 -17 19 -20 43 -24 232 l-5 211 -28 2 c-16 0
-31 -5 -34 -12z"/>
<path d="M1850 4999 l0 -259 30 0 30 0 0 115 0 115 53 0 c78 0 90 -17 95 -136
l4 -94 32 0 32 0 -3 88 c-5 110 -9 128 -34 153 l-21 21 22 20 c41 38 51 102
26 163 -21 50 -64 68 -173 71 l-93 3 0 -260z m190 181 c28 -28 27 -98 0 -128
-17 -17 -32 -22 -75 -22 l-55 0 0 85 0 85 55 0 c42 0 60 -5 75 -20z"/>
<path d="M2216 5253 c-3 -4 -6 -120 -6 -260 l0 -253 124 0 c120 0 124 1 130
23 3 12 6 25 6 30 0 4 -44 7 -97 7 l-98 0 0 90 0 90 88 0 87 0 0 30 0 29 -86
3 -86 3 0 75 0 75 92 3 91 3 -3 27 -3 27 -116 2 c-64 1 -119 -1 -123 -4z"/>
<path d="M7480 5065 l0 -55 115 0 115 0 0 -70 0 -70 -115 0 -115 0 0 -55 0
-55 290 0 290 0 0 55 0 55 -130 0 -130 0 0 70 0 70 130 0 130 0 0 55 0 55
-290 0 -290 0 0 -55z"/>
<path d="M10633 5098 c-43 -14 -84 -59 -131 -143 -38 -67 -41 -70 -77 -70 -68
0 -75 63 -9 75 28 5 29 6 29 70 l0 65 -35 -3 c-82 -7 -132 -63 -138 -157 -8
-119 57 -195 167 -195 72 0 122 38 178 138 39 69 65 92 103 92 33 0 50 -17 50
-51 0 -30 -13 -43 -52 -53 -27 -6 -28 -9 -28 -71 0 -64 0 -65 28 -65 39 1 108
34 126 62 23 35 37 111 29 163 -7 51 -34 98 -74 127 -30 23 -121 32 -166 16z"/>
<path d="M4659 4581 c-55 -11 -122 -55 -152 -99 -79 -113 -107 -365 -66 -588
21 -114 78 -191 166 -224 107 -40 233 -18 307 53 44 43 86 132 86 182 0 25 -1
25 -84 25 l-83 0 -7 -41 c-9 -57 -52 -99 -101 -99 -87 0 -125 102 -125 330 0
209 32 308 106 326 15 4 38 3 53 -2 33 -12 71 -69 71 -105 l0 -29 85 0 85 0 0
30 c0 40 -32 123 -64 164 -47 63 -177 99 -277 77z"/>
<path d="M6995 4581 c-130 -36 -184 -107 -185 -240 0 -131 41 -183 218 -274
110 -57 143 -90 149 -151 7 -57 -11 -102 -48 -121 -68 -36 -144 -1 -169 78
l-15 47 -84 0 -84 0 7 -42 c11 -69 53 -146 96 -174 117 -78 294 -70 393 16 57
51 78 103 78 196 0 134 -56 206 -223 290 -51 25 -103 55 -115 67 -55 50 -50
143 9 173 62 32 130 -6 144 -82 l6 -34 85 0 85 0 -7 43 c-15 94 -63 161 -139
192 -45 19 -158 28 -201 16z"/>
<path d="M9800 4581 c-84 -18 -147 -67 -177 -138 -7 -18 -13 -65 -13 -105 0
-128 44 -183 217 -270 111 -56 153 -101 153 -164 0 -55 -20 -96 -55 -112 -68
-31 -134 1 -162 77 l-18 51 -82 0 c-94 0 -94 0 -69 -84 35 -115 117 -175 249
-184 190 -12 313 94 311 269 0 51 -6 79 -28 122 -32 66 -78 103 -211 170 -49
24 -98 53 -107 63 -49 55 -42 141 14 170 62 32 130 -6 144 -82 l6 -34 84 0
c96 0 95 -1 69 88 -19 64 -66 119 -122 144 -48 21 -150 31 -203 19z"/>
<path d="M1387 4574 c-4 -4 -7 -38 -7 -76 l0 -68 -175 0 -175 0 0 -55 0 -55
220 0 220 0 0 125 c0 112 -2 125 -17 125 -10 0 -27 3 -38 6 -11 3 -24 2 -28
-2z"/>
<path d="M1610 4300 l0 -280 35 0 35 0 0 130 0 130 90 0 90 0 0 30 0 30 -90 0
-90 0 0 90 0 90 95 0 95 0 0 30 0 30 -130 0 -130 0 0 -280z"/>
<path d="M2000 4577 c0 -2 -29 -126 -65 -275 -36 -150 -65 -275 -65 -277 0 -3
15 -5 33 -5 l34 0 18 85 18 85 71 0 71 0 19 -85 19 -85 33 0 c24 0 34 5 34 15
0 9 -27 125 -60 258 -33 133 -63 252 -65 265 -5 19 -12 22 -50 22 -25 0 -45
-1 -45 -3z m100 -319 c0 -5 -25 -8 -55 -8 -30 0 -55 2 -55 5 0 3 11 57 25 121
14 64 25 119 26 122 1 7 58 -227 59 -240z"/>
<path d="M2290 4300 l0 -280 30 0 30 0 1 233 0 232 48 -230 47 -230 31 -3 c38
-4 33 -16 98 278 l43 195 1 -237 1 -238 35 0 35 0 -2 278 -3 277 -49 0 c-58 0
-50 17 -111 -252 -22 -95 -41 -170 -43 -168 -2 2 -19 75 -37 162 -19 87 -39
182 -45 211 l-12 52 -49 0 -49 0 0 -280z"/>
<path d="M2797 4573 c-4 -3 -7 -129 -7 -280 l0 -273 35 0 35 0 0 280 0 280
-28 0 c-16 0 -32 -3 -35 -7z"/>
<path d="M2970 4301 l0 -281 130 0 130 0 0 30 0 30 -95 0 -95 0 -2 248 -3 247
-32 3 -33 3 0 -280z"/>
<path d="M3170 4575 c0 -2 32 -78 70 -169 l70 -166 0 -110 0 -110 35 0 35 0 0
108 0 108 70 163 c39 89 70 167 70 172 0 14 -56 11 -67 -3 -5 -7 -29 -66 -54
-130 -24 -65 -47 -118 -50 -118 -3 0 -23 46 -44 103 -58 154 -60 157 -100 157
-19 0 -35 -2 -35 -5z"/>
<path d="M5107 4573 c-4 -3 -7 -208 -7 -455 l0 -448 85 0 85 0 0 200 0 200
115 0 115 0 0 -200 0 -200 85 0 85 0 -2 453 -3 452 -82 3 -83 3 0 -181 0 -180
-115 0 -115 0 0 180 0 180 -78 0 c-43 0 -82 -3 -85 -7z"/>
<path d="M5830 4125 l0 -455 80 0 80 0 0 190 0 190 69 0 c118 0 140 -36 141
-235 1 -151 -3 -145 94 -145 l81 0 -8 152 c-10 183 -19 222 -63 266 l-33 33
35 31 c46 41 63 75 70 146 12 107 -35 205 -117 247 -43 23 -145 35 -291 35
l-138 0 0 -455z m347 282 c25 -24 28 -35 28 -92 0 -57 -3 -68 -28 -92 -24 -25
-36 -28 -107 -31 l-80 -4 0 127 0 127 80 -4 c71 -3 83 -6 107 -31z"/>
<path d="M6507 4573 c-4 -3 -7 -208 -7 -455 l0 -448 85 0 85 0 0 455 0 455
-78 0 c-43 0 -82 -3 -85 -7z"/>
<path d="M7400 4505 l0 -75 100 0 100 0 0 -380 0 -380 85 0 85 0 0 380 0 380
100 0 101 0 -3 73 -3 72 -282 3 -283 2 0 -75z"/>
<path d="M8057 4573 c-4 -3 -7 -208 -7 -455 l0 -448 81 0 81 0 -3 374 c-2 206
-3 373 -2 372 1 -1 9 -45 17 -97 8 -51 35 -215 60 -364 25 -148 46 -273 46
-277 0 -5 35 -8 79 -8 l78 0 36 188 c20 103 48 252 62 332 15 80 30 161 35
180 5 21 8 -112 9 -332 l1 -368 80 0 80 0 -2 453 -3 452 -114 3 c-63 1 -118
-1 -123 -6 -7 -7 -125 -564 -129 -607 0 -5 -18 91 -39 215 -43 246 -69 380
-76 392 -6 10 -238 11 -247 1z"/>
<path d="M9087 4563 c-3 -10 -12 -47 -21 -83 -8 -36 -29 -123 -46 -195 -61
-259 -112 -471 -130 -543 l-18 -73 86 3 85 3 19 85 c9 47 20 95 23 108 5 22 8
23 113 20 l107 -3 20 -105 21 -105 91 -3 91 -3 -18 68 c-10 37 -32 129 -50
203 -77 330 -133 558 -144 595 l-13 40 -106 3 c-94 2 -106 1 -110 -15z m143
-323 c17 -85 34 -165 37 -177 5 -22 3 -23 -72 -23 -68 0 -76 2 -72 18 3 9 20
90 38 179 18 90 34 162 35 160 2 -2 17 -72 34 -157z"/>
<path d="M10583 4556 c-51 -23 -67 -66 -68 -176 0 -105 18 -152 66 -178 36
-19 107 -9 136 20 59 59 57 262 -2 318 -29 27 -90 35 -132 16z m75 -68 c13
-13 17 -183 6 -212 -8 -22 -41 -20 -54 3 -5 11 -10 56 -10 101 0 106 21 145
58 108z"/>
<path d="M11095 4561 c-39 -17 -60 -51 -60 -96 0 -50 18 -74 83 -112 52 -31
67 -55 52 -84 -14 -25 -42 -21 -55 9 -8 17 -18 22 -47 22 -32 0 -38 -3 -38
-21 0 -69 84 -107 169 -78 37 13 61 54 61 105 0 29 -8 44 -38 73 -20 20 -52
44 -70 53 -34 18 -45 61 -18 71 16 6 36 -11 36 -30 0 -8 14 -13 40 -13 36 0
40 3 40 24 0 42 -39 77 -90 82 -25 2 -54 0 -65 -5z"/>
<path d="M3670 4504 l0 -57 207 5 206 5 -206 -81 -207 -81 0 -67 0 -68 301 0
300 0 -3 53 -3 52 -213 -1 c-117 -1 -212 -1 -210 1 2 2 93 38 203 80 110 43
206 80 213 82 8 3 12 27 12 69 l0 64 -300 0 -300 0 0 -56z"/>
<path d="M10270 4525 c0 -33 2 -35 35 -35 l35 0 0 -145 0 -145 40 0 40 0 0
144 0 145 38 3 c34 3 37 6 40 36 l3 32 -115 0 -116 0 0 -35z"/>
<path d="M10784 4498 c13 -35 33 -88 45 -118 13 -35 21 -78 21 -117 l0 -63 40
0 40 0 0 58 c0 43 11 85 45 175 25 66 45 121 45 123 0 2 -19 4 -43 4 l-43 0
-18 -75 c-10 -41 -19 -75 -21 -75 -2 0 -11 34 -21 75 l-18 75 -47 0 -48 0 23
-62z"/>
<path d="M1117 4246 c-49 -18 -67 -34 -84 -73 -34 -83 -4 -170 72 -208 59 -29
233 -28 291 3 58 29 77 64 77 135 0 62 -15 93 -67 131 -23 18 -44 21 -139 24
-77 1 -124 -2 -150 -12z m242 -107 c23 -8 31 -17 31 -35 0 -34 -33 -44 -150
-44 -80 0 -102 3 -121 18 -26 22 -21 48 13 62 32 13 189 12 227 -1z"/>
<path d="M3819 4057 c-114 -32 -163 -95 -157 -203 7 -118 75 -176 225 -192 86
-10 218 0 267 19 91 36 133 106 123 204 -8 77 -36 118 -105 152 -51 25 -68 28
-182 30 -80 2 -142 -2 -171 -10z m318 -127 c74 -33 71 -98 -5 -133 -67 -30
-267 -31 -327 -2 -74 37 -71 116 5 142 20 7 90 12 160 12 102 0 133 -3 167
-19z"/>
<path d="M10694 4011 c-43 -26 -59 -77 -58 -181 1 -91 17 -140 53 -160 30 -15
82 -12 103 7 17 15 18 15 18 0 0 -11 8 -17 25 -17 l25 0 0 105 0 105 -55 0
c-54 0 -55 0 -55 -29 0 -23 5 -30 23 -33 19 -3 22 -8 19 -38 -5 -43 -19 -62
-46 -58 -31 5 -46 45 -46 128 0 89 15 124 53 128 21 3 29 -2 37 -22 7 -18 17
-26 34 -26 33 0 38 11 25 49 -20 57 -96 78 -155 42z"/>
<path d="M11464 4020 c-30 -12 -54 -49 -54 -83 0 -46 25 -81 80 -111 59 -32
78 -62 60 -95 -15 -29 -61 -25 -75 7 -7 16 -18 22 -42 22 -37 0 -40 -8 -18
-50 20 -38 43 -50 100 -50 65 0 105 39 105 102 0 55 -13 73 -81 113 -49 28
-54 35 -54 66 0 30 3 34 25 34 16 0 28 -8 35 -22 7 -17 18 -23 42 -23 34 0 35
5 11 56 -18 39 -83 55 -134 34z"/>
<path d="M10300 3840 l0 -181 88 3 c87 3 87 3 90 31 3 27 3 27 -57 27 l-61 0
0 150 0 150 -30 0 -30 0 0 -180z"/>
<path d="M10520 3840 l0 -180 30 0 30 0 0 180 0 180 -30 0 -30 0 0 -180z"/>
<path d="M10917 3843 l2 -178 30 -3 30 -3 3 83 3 83 40 0 40 0 3 -82 3 -83 29
0 30 0 0 180 0 180 -30 0 c-29 0 -29 0 -32 -67 l-3 -68 -42 -3 -43 -3 0 70 0
71 -32 0 -33 0 2 -177z"/>
<path d="M11170 3995 c0 -22 4 -25 35 -25 l34 0 3 -152 3 -153 30 0 30 0 3
153 3 152 34 0 c31 0 35 3 35 25 l0 25 -105 0 -105 0 0 -25z"/>
<path d="M1068 3871 l-33 -29 -3 -121 -4 -121 219 2 218 3 0 55 0 55 -87 3
c-85 3 -88 3 -88 27 0 33 13 38 100 45 l75 5 3 53 3 52 -70 0 c-74 0 -119 -12
-138 -36 -9 -13 -14 -12 -37 10 -20 21 -35 26 -75 26 -42 0 -56 -5 -83 -29z
m130 -93 c7 -7 12 -22 12 -35 0 -21 -4 -23 -55 -23 -58 0 -61 3 -45 44 8 21
16 26 43 26 18 0 38 -5 45 -12z"/>
<path d="M1620 3782 l0 -48 90 -34 c49 -19 90 -38 90 -41 0 -3 -39 -21 -87
-41 l-88 -35 -3 -52 c-2 -28 0 -51 3 -51 3 0 64 29 135 65 127 64 131 65 210
65 l80 0 0 45 0 45 -80 0 c-79 0 -83 1 -210 65 -71 36 -132 65 -135 65 -3 0
-5 -22 -5 -48z"/>
<path d="M2572 3818 c-54 -12 -97 -54 -141 -138 -46 -89 -58 -100 -101 -100
-45 0 -73 27 -68 66 3 27 24 44 71 58 13 4 17 16 17 56 0 47 -2 50 -25 50 -70
0 -130 -52 -144 -123 -23 -124 44 -217 157 -217 84 0 131 36 182 140 36 73 67
100 115 100 55 0 77 -24 73 -77 -3 -34 -8 -40 -45 -58 -43 -19 -43 -20 -43
-73 l0 -54 33 7 c117 24 173 128 137 254 -24 85 -117 132 -218 109z"/>
<path d="M2972 3778 l3 -52 114 -40 114 -40 -116 -40 -117 -41 0 -57 0 -57 48
20 c275 119 275 119 382 119 l100 0 0 50 0 50 -95 0 -95 0 -166 70 c-92 39
-168 70 -171 70 -2 0 -3 -23 -1 -52z"/>
<path d="M1320 3544 c-58 -13 -147 -34 -197 -45 l-93 -21 0 -77 0 -77 93 -18
c50 -11 140 -29 199 -42 151 -34 148 -34 148 26 0 54 0 54 -62 65 -36 6 -38 8
-38 45 0 33 4 40 23 44 83 17 77 11 77 71 0 66 6 64 -150 29z m-30 -146 c0
-19 -4 -20 -57 -14 -98 12 -105 19 -28 31 79 13 85 12 85 -17z"/>
<path d="M3670 3505 l0 -55 300 0 300 0 0 55 0 55 -300 0 -300 0 0 -55z"/>
<path d="M7180 3406 l0 -106 -90 0 -90 0 0 96 0 95 -42 -3 -43 -3 -3 -92 -3
-93 -75 0 -75 0 3 95 3 95 -47 0 -48 0 0 -150 0 -150 300 0 300 0 0 155 0 155
-29 0 c-16 0 -36 3 -45 6 -14 5 -16 -7 -16 -100z"/>
<path d="M5288 3484 c-34 -18 -48 -43 -48 -87 0 -45 30 -81 91 -112 34 -18 51
-33 55 -52 9 -35 -7 -58 -42 -58 -21 0 -32 7 -42 28 -10 20 -20 27 -43 27 -33
0 -37 -15 -14 -60 19 -37 43 -50 95 -50 51 0 93 21 108 55 28 61 6 118 -60
154 -60 33 -78 51 -78 76 0 49 53 55 71 9 6 -18 16 -24 39 -24 19 0 30 5 30
14 0 75 -91 119 -162 80z"/>
<path d="M6350 3493 c-40 -15 -60 -46 -60 -95 0 -55 15 -75 79 -108 55 -27 78
-63 63 -95 -17 -36 -58 -34 -80 5 -12 22 -24 30 -44 30 -23 0 -28 -4 -28 -26
0 -15 12 -38 29 -55 25 -24 38 -29 79 -29 59 0 98 26 110 73 17 64 -12 113
-90 153 -47 24 -64 48 -52 77 13 36 60 30 70 -9 5 -18 13 -24 34 -24 38 0 44
13 25 54 -23 47 -81 69 -135 49z"/>
<path d="M4450 3304 l0 -185 33 3 32 3 3 71 3 72 49 6 c65 9 100 48 100 113 0
36 -6 50 -29 74 -28 27 -34 29 -110 29 l-81 0 0 -186z m138 124 c7 -7 12 -26
12 -43 0 -38 -16 -55 -52 -55 -27 0 -28 1 -28 55 0 54 1 55 28 55 15 0 33 -5
40 -12z"/>
<path d="M4720 3304 l0 -185 33 3 32 3 3 78 3 77 29 0 c37 0 44 -12 50 -90 5
-65 5 -65 37 -68 l32 -3 -6 73 c-3 40 -12 84 -20 97 -9 14 -11 26 -6 30 18 11
33 49 33 81 0 22 -9 41 -29 61 -28 27 -34 29 -110 29 l-81 0 0 -186z m138 124
c7 -7 12 -22 12 -34 0 -42 -11 -54 -46 -54 l-34 0 0 50 c0 48 1 50 28 50 15 0
33 -5 40 -12z"/>
<path d="M5000 3305 l0 -185 94 0 94 0 4 30 5 30 -69 0 -68 0 0 55 0 55 60 0
60 0 0 30 0 30 -61 0 -60 0 3 42 3 41 60 1 c58 1 60 2 63 29 l3 27 -95 0 -96
0 0 -185z"/>
<path d="M5510 3305 l0 -185 94 0 c76 0 95 3 100 16 15 39 8 44 -59 44 l-65 0
0 55 0 55 61 0 c60 0 60 0 57 28 -3 26 -6 27 -60 30 l-58 3 0 42 0 42 60 -3
60 -4 0 31 0 31 -95 0 -95 0 0 -185z"/>
<path d="M5760 3304 l0 -185 28 3 27 3 0 127 c0 70 3 124 6 120 3 -4 25 -62
49 -130 l43 -123 36 3 36 3 3 183 2 182 -29 0 -30 0 -3 -122 -3 -123 -45 122
-45 123 -37 0 -38 0 0 -186z"/>
<path d="M6030 3466 c0 -21 5 -25 38 -28 l37 -3 3 -157 3 -158 29 0 29 0 3
158 3 157 38 3 c32 3 37 7 37 28 0 24 0 24 -110 24 -110 0 -110 0 -110 -24z"/>
<path d="M7535 3474 c-94 -49 -135 -156 -135 -354 0 -222 49 -323 171 -349
116 -25 216 27 247 129 25 84 27 80 -42 80 l-62 0 -14 -42 c-18 -50 -53 -74
-94 -64 -45 11 -68 78 -74 216 -7 181 18 272 82 294 36 13 78 -18 90 -67 l10
-37 63 0 63 0 -6 28 c-20 93 -54 145 -111 168 -44 19 -151 18 -188 -2z"/>
<path d="M7920 3130 l0 -350 60 0 60 0 0 155 0 155 85 0 85 0 0 -155 0 -155
65 0 65 0 0 350 0 350 -65 0 -65 0 0 -140 0 -141 -82 3 -83 3 -3 138 -3 137
-59 0 -60 0 0 -350z"/>
<path d="M8460 3130 l0 -350 65 0 65 0 0 350 0 350 -65 0 -65 0 0 -350z"/>
<path d="M8718 3130 l3 -350 173 0 c192 0 186 -2 186 66 l0 33 -117 3 -118 3
-3 298 -2 297 -63 0 -62 0 3 -350z"/>
<path d="M9150 3130 l0 -350 116 0 c139 0 186 12 236 62 56 56 80 142 81 293
1 142 -17 216 -66 272 -53 60 -93 73 -239 73 l-128 0 0 -350z m254 221 c35
-33 47 -89 47 -214 -1 -189 -36 -257 -133 -257 l-38 0 0 251 0 252 50 -5 c33
-3 59 -13 74 -27z"/>
<path d="M9685 3130 l0 -350 63 0 62 0 0 151 0 151 56 -4 c88 -7 96 -21 103
-170 l6 -123 61 -3 61 -3 -4 118 c-5 127 -22 194 -55 217 -21 15 -21 15 10 41
40 33 55 82 50 160 -3 48 -10 70 -30 97 -45 59 -77 68 -240 68 l-143 0 0 -350z
m258 230 c34 -27 43 -76 23 -123 -17 -42 -46 -57 -112 -57 l-44 0 0 100 0 100
54 0 c39 0 60 -6 79 -20z"/>
<path d="M10200 3130 l0 -350 184 0 184 0 4 48 c3 26 3 50 1 55 -2 4 -60 7
-129 7 l-124 0 0 100 0 100 115 0 115 0 0 55 0 55 -115 0 -115 0 0 85 0 85
120 0 120 0 0 55 0 55 -180 0 -180 0 0 -350z"/>
<path d="M10660 3130 l0 -350 55 0 55 0 1 253 c0 138 3 245 6 237 18 -51 164
-460 169 -474 5 -13 21 -16 75 -16 l69 0 0 350 0 350 -55 0 -55 0 0 -237 -1
-238 -88 235 -88 235 -71 3 -72 3 0 -351z"/>
<path d="M1718 3455 c-79 -26 -118 -93 -105 -185 12 -91 85 -135 222 -134 100
1 146 16 185 60 27 31 30 41 30 100 0 80 -19 118 -75 146 -53 27 -190 34 -257
13z m231 -98 c60 -31 52 -93 -14 -115 -59 -20 -208 -12 -235 13 -31 28 -27 80
8 99 34 19 206 21 241 3z"/>
<path d="M2187 3424 c-4 -4 -7 -88 -7 -186 l0 -178 50 0 50 0 0 65 0 65 255 0
255 0 0 55 0 55 -255 0 -254 0 -3 63 -3 62 -40 3 c-23 2 -44 0 -48 -4z"/>
<path d="M2970 3265 l0 -165 45 0 45 0 0 55 0 55 220 0 220 0 0 50 0 50 -220
0 -220 0 0 60 0 60 -45 0 -45 0 0 -165z"/>
<path d="M3670 3195 l0 -195 45 0 45 0 0 65 0 65 255 0 255 0 0 60 0 60 -255
0 -255 0 0 70 0 70 -45 0 -45 0 0 -195z"/>
<path d="M1090 3197 c-92 -47 -93 -202 -1 -259 30 -19 53 -23 147 -26 95 -4
118 -1 157 16 25 11 53 32 63 47 24 37 23 131 -1 173 -20 33 -68 62 -104 62
-19 0 -21 -6 -21 -54 0 -52 1 -55 28 -58 21 -2 28 -9 30 -29 3 -22 -2 -29 -29
-38 -46 -16 -183 -14 -225 4 -50 21 -42 50 19 69 13 4 17 16 17 56 0 48 -1 50
-27 50 -16 0 -39 -6 -53 -13z"/>
<path d="M6795 3121 c-59 -15 -96 -41 -116 -84 -50 -112 2 -216 129 -253 77
-23 265 -23 343 -1 95 28 139 99 126 199 -9 69 -60 120 -134 137 l-43 9 0 -54
c0 -46 3 -54 19 -54 29 0 71 -39 71 -65 0 -59 -67 -81 -240 -79 -119 1 -173
18 -191 58 -16 34 9 72 54 84 31 8 32 10 32 57 0 52 -5 57 -50 46z"/>
<path d="M1620 3020 l0 -50 175 0 c162 0 175 -1 185 -19 5 -11 10 -29 10 -40
0 -17 6 -21 30 -21 30 0 30 1 30 53 0 28 -6 63 -13 77 -20 40 -66 49 -249 49
l-168 1 0 -50z"/>
<path d="M2970 3000 l0 -50 265 0 265 0 0 50 0 50 -265 0 -265 0 0 -50z"/>
<path d="M4025 2979 c-126 -32 -258 -66 -292 -75 l-63 -16 0 -74 0 -73 38 -11
c20 -5 147 -37 282 -70 135 -34 253 -63 263 -66 15 -5 17 2 17 53 l0 59 -72
15 -73 14 -3 76 -3 76 73 14 73 14 3 63 c2 34 -1 61 -5 61 -4 -1 -111 -28
-238 -60z m-5 -169 c0 -27 -2 -50 -5 -50 -6 0 -181 38 -215 47 -19 4 2 12 80
28 149 32 140 34 140 -25z"/>
<path d="M2180 2855 l0 -155 305 0 305 0 0 55 0 55 -130 0 -130 0 0 95 0 95
-50 0 -50 0 0 -95 0 -95 -75 0 -75 0 0 100 0 100 -50 0 -50 0 0 -155z"/>
<path d="M4430 2947 c0 -12 73 -393 85 -445 5 -21 11 -23 52 -20 l47 3 30 153
c19 95 33 147 37 135 4 -10 17 -72 29 -138 31 -170 24 -157 78 -153 l47 3 12
60 c7 33 28 136 48 229 19 93 35 173 35 178 0 4 -20 8 -44 8 -50 0 -43 19 -71
-180 -18 -121 -33 -178 -35 -130 0 14 -13 88 -28 165 l-28 140 -42 3 c-23 2
-42 2 -42 0 -1 -2 -16 -77 -34 -168 l-33 -165 -12 80 c-6 44 -17 118 -24 165
l-13 85 -47 3 c-35 2 -47 0 -47 -11z"/>
<path d="M4980 2720 l0 -240 45 0 45 0 0 240 0 240 -45 0 -45 0 0 -240z"/>
<path d="M5150 2720 l0 -240 45 0 45 0 1 163 0 162 61 -162 60 -163 49 0 49 0
0 240 0 240 -40 0 -39 0 -3 -152 -3 -153 -56 150 -57 150 -56 3 -56 3 0 -241z"/>
<path d="M5510 2920 l0 -40 50 0 50 0 0 -200 0 -200 50 0 50 0 0 200 0 200 50
0 50 0 0 40 0 40 -150 0 -150 0 0 -40z"/>
<path d="M5860 2720 l0 -240 130 0 c97 0 130 3 130 13 0 6 3 22 6 34 6 22 3
22 -82 25 l-89 3 -3 68 -3 67 81 0 80 0 0 40 0 40 -80 0 -80 0 0 55 0 55 85 0
85 0 0 40 0 40 -130 0 -130 0 0 -240z"/>
<path d="M6180 2720 l0 -240 45 0 45 0 0 100 0 100 39 0 c57 0 71 -24 71 -122
l0 -78 45 0 45 0 0 81 c0 80 -20 149 -42 149 -5 0 1 13 15 29 51 61 41 156
-22 198 -30 20 -46 23 -137 23 l-104 0 0 -240z m184 154 c19 -18 21 -85 4
-102 -7 -7 -31 -12 -55 -12 l-43 0 0 65 0 65 39 0 c23 0 46 -7 55 -16z"/>
<path d="M3065 2873 c-71 -20 -95 -74 -95 -213 l0 -100 265 0 265 0 0 50 0 50
-115 0 c-127 0 -129 1 -104 67 14 39 24 43 104 43 109 0 115 3 115 62 0 42 -3
49 -16 44 -9 -3 -53 -6 -98 -6 -71 0 -88 -3 -118 -24 l-36 -24 -24 24 c-24 25
-100 39 -143 27z m104 -110 c12 -11 22 -34 25 -60 l4 -43 -74 0 -74 0 0 40 c0
70 68 105 119 63z"/>
<path d="M6958 2662 l-288 -66 0 -68 c0 -55 3 -68 18 -72 9 -3 144 -34 300
-69 l282 -64 0 52 0 53 -72 14 -73 13 0 70 0 69 35 7 c19 4 52 10 73 13 l37 7
0 54 c0 38 -4 55 -12 54 -7 0 -142 -31 -300 -67z m72 -137 c0 -26 -5 -45 -11
-45 -33 0 -241 45 -224 49 97 21 194 39 213 40 20 1 22 -4 22 -44z"/>
<path d="M11092 2589 c-88 -44 -116 -116 -115 -299 0 -143 10 -190 54 -252 68
-94 259 -89 323 9 37 58 49 116 50 243 0 126 -12 184 -50 243 -48 74 -172 100
-262 56z m148 -97 c36 -36 43 -83 39 -241 -3 -102 -7 -124 -25 -148 -31 -42
-68 -52 -101 -27 -41 31 -55 84 -55 214 -1 129 11 180 49 210 35 27 59 25 93
-8z"/>
<path d="M7410 2555 l0 -45 172 -2 172 -3 -172 -65 -172 -65 0 -58 0 -57 263
2 262 3 3 42 3 43 -182 2 -183 3 180 66 179 66 0 54 0 54 -262 3 -263 2 0 -45z"/>
<path d="M8072 2553 l3 -48 70 -5 70 -5 0 -255 0 -255 60 0 60 0 0 255 0 255
70 5 70 5 3 48 3 47 -206 0 -206 0 3 -47z"/>
<path d="M8560 2300 c0 -165 -1 -303 -2 -307 -2 -5 23 -9 54 -11 l57 -3 3 133
3 133 25 -1 c106 -3 120 -16 120 -116 0 -40 3 -90 6 -110 l7 -38 57 0 57 0 -4
93 c-6 132 -11 154 -43 191 l-29 33 23 11 c53 24 73 139 36 211 -33 65 -80 81
-238 81 l-132 0 0 -300z m244 189 c34 -27 37 -91 4 -126 -18 -19 -32 -23 -80
-23 l-58 0 0 85 0 85 54 0 c39 0 60 -6 80 -21z"/>
<path d="M9091 2303 c-41 -164 -76 -304 -79 -310 -3 -10 12 -13 57 -13 55 0
61 2 66 23 2 12 10 47 17 77 l13 55 77 3 76 3 12 -58 c23 -113 15 -103 85
-103 l63 0 -77 308 -77 307 -80 3 -79 3 -74 -298z m177 70 c31 -149 32 -143
-28 -143 -27 0 -50 3 -50 8 -1 18 46 242 50 242 3 0 15 -48 28 -107z"/>
<path d="M9550 2290 l0 -310 103 0 c171 0 231 29 278 135 17 37 24 76 27 153
6 136 -15 219 -69 273 -48 48 -88 59 -226 59 l-113 0 0 -310z m226 201 c44
-27 59 -76 59 -196 0 -164 -37 -225 -135 -225 l-30 0 0 220 0 220 38 0 c20 0
51 -9 68 -19z"/>
<path d="M10070 2300 c0 -165 -1 -303 -2 -307 -2 -5 25 -9 60 -11 l62 -3 0
311 0 310 -60 0 -60 0 0 -300z"/>
<path d="M10262 2553 l3 -48 67 -3 68 -3 2 -257 3 -257 58 -3 57 -3 0 260 0
260 73 3 72 3 3 48 3 47 -206 0 -206 0 3 -47z"/>
<path d="M10742 2293 l3 -308 60 0 60 0 3 308 2 307 -65 0 -65 0 2 -307z"/>
<path d="M11510 2290 l0 -310 55 0 55 0 0 223 1 222 38 -100 c21 -55 60 -155
86 -222 l48 -123 63 0 64 0 0 310 0 310 -50 0 -50 0 0 -212 0 -213 -81 200
c-44 110 -83 206 -86 213 -3 8 -28 12 -74 12 l-69 0 0 -310z"/>
<path d="M2182 2538 l3 -53 300 0 300 0 3 53 3 52 -306 0 -306 0 3 -52z"/>
<path d="M3791 2538 c-24 -4 -55 -18 -69 -30 -43 -40 -52 -77 -52 -213 l0
-125 300 0 300 0 0 55 0 55 -131 0 -132 0 5 52 c7 73 29 88 123 88 40 0 87 3
104 6 30 6 31 8 31 62 l0 55 -112 -8 c-113 -7 -159 -20 -176 -52 -8 -14 -13
-12 -38 15 -34 37 -89 52 -153 40z m104 -122 c13 -9 21 -31 25 -70 3 -31 4
-59 1 -61 -2 -3 -40 -5 -83 -5 l-78 0 0 55 c0 42 5 60 20 75 24 24 87 27 115
6z"/>
<path d="M3430 2500 c-14 -5 -106 -27 -205 -50 -99 -23 -197 -47 -217 -53
l-38 -10 0 -62 0 -63 108 -26 c306 -74 402 -96 412 -96 5 0 10 22 10 48 l0 48
-65 13 -65 13 0 64 c0 58 2 64 21 64 11 0 40 5 65 11 l44 11 0 49 c0 44 -2 49
-22 48 -13 0 -34 -4 -48 -9z m-150 -181 c0 -34 -3 -40 -17 -35 -17 5 -163 35
-180 37 -14 2 141 36 170 38 25 1 27 -2 27 -40z"/>
<path d="M2290 2381 c-75 -23 -112 -75 -112 -159 0 -57 10 -94 34 -122 46 -56
154 -90 284 -90 153 0 256 38 289 106 23 48 16 126 -14 157 -26 29 -27 37 -1
37 17 0 20 7 20 40 l0 40 -170 0 -170 0 0 -95 0 -95 45 0 45 0 0 40 0 40 60 0
c52 0 65 -4 86 -25 34 -34 29 -73 -14 -101 -64 -44 -311 -41 -371 4 -36 27
-41 84 -9 106 12 9 30 16 40 16 15 0 18 9 18 55 0 59 -4 63 -60 46z"/>
<path d="M4745 2298 c-39 -21 -67 -54 -95 -109 -35 -69 -50 -81 -92 -77 -43 4
-62 46 -33 78 10 11 26 20 37 20 15 0 18 8 18 46 l0 47 -32 -7 c-47 -9 -78
-33 -95 -74 -18 -43 -13 -110 12 -148 35 -54 137 -69 193 -27 14 10 41 48 61
83 43 75 76 99 117 85 59 -21 58 -86 -1 -111 -32 -13 -35 -18 -35 -55 l0 -42
36 6 c50 8 83 32 100 72 32 77 3 179 -59 208 -40 19 -102 22 -132 5z"/>
<path d="M7180 2175 l0 -105 -90 0 -90 0 0 95 0 95 -45 0 -45 0 0 -95 0 -96
-72 3 -73 3 -1 95 -2 95 -46 3 -46 3 0 -150 0 -151 300 0 300 0 0 149 c0 146
0 149 -22 155 -13 3 -33 6 -45 6 -22 0 -23 -3 -23 -105z"/>
<path d="M7552 2180 c-119 -25 -181 -131 -138 -234 30 -71 114 -107 256 -108
198 -1 297 71 275 201 -17 102 -84 142 -245 147 -58 2 -124 -1 -148 -6z m272
-112 c28 -15 36 -28 36 -60 0 -48 -44 -63 -190 -63 -150 0 -180 12 -180 70 0
39 19 54 85 66 53 10 222 1 249 -13z"/>
<path d="M2970 2040 l0 -50 105 0 105 0 0 -65 0 -65 -105 0 -105 0 0 -50 0
-50 265 0 265 0 0 50 0 49 -117 3 -118 3 -3 63 -3 62 121 0 120 0 0 50 0 50
-265 0 -265 0 0 -50z"/>
<path d="M3867 2070 c-132 -21 -195 -76 -204 -178 -3 -34 0 -74 6 -95 16 -46
78 -102 133 -119 56 -17 279 -17 336 0 56 17 119 74 132 120 33 121 -21 225
-133 256 -68 20 -197 27 -270 16z m270 -136 c78 -39 63 -115 -28 -142 -64 -19
-273 -12 -316 11 -78 41 -46 127 55 148 67 14 246 4 289 -17z"/>
<path d="M4868 1883 l-3 -88 -70 0 -70 0 -3 78 -3 77 -34 0 -34 0 -3 -77 -3
-78 -57 -3 -57 -3 -3 83 -3 83 -37 3 -38 3 0 -125 0 -126 245 0 245 0 0 124
c0 120 -1 124 -22 130 -46 12 -47 10 -50 -81z"/>
<path d="M6760 1878 c-75 -39 -84 -61 -89 -204 l-3 -124 301 0 301 0 0 55 0
55 -119 0 -118 0 -6 66 c-4 36 -15 80 -24 98 -24 41 -94 76 -153 76 -28 0 -63
-9 -90 -22z m160 -108 c14 -14 20 -33 20 -65 l0 -45 -90 0 -90 0 0 45 c0 62
24 85 90 85 37 0 55 -5 70 -20z"/>
<path d="M8184 1821 c-73 -45 -100 -124 -92 -277 6 -102 25 -155 70 -188 36
-25 115 -27 152 -3 23 16 27 16 32 2 4 -9 19 -15 40 -15 l34 0 0 140 0 141
-82 -3 -83 -3 0 -35 c0 -33 2 -35 39 -38 l38 -3 -7 -47 c-8 -56 -29 -82 -65
-82 -50 0 -64 30 -68 147 -5 121 7 175 44 199 31 21 70 7 84 -31 8 -22 16 -25
55 -25 51 0 53 6 26 66 -12 27 -30 46 -54 57 -47 23 -124 22 -163 -2z"/>
<path d="M8595 1828 c-11 -32 -115 -459 -115 -473 0 -11 11 -15 44 -15 l44 0
14 63 13 62 60 0 60 0 14 -62 15 -63 48 0 c26 0 48 2 48 5 0 14 -111 453 -120
473 -8 19 -17 22 -65 22 -36 0 -57 -5 -60 -12z m98 -255 l7 -33 -46 0 c-38 0
-45 3 -40 18 3 9 13 55 23 102 l17 85 17 -70 c9 -38 19 -85 22 -102z"/>
<path d="M8894 1827 c-2 -7 -3 -118 -2 -247 l3 -235 48 -3 47 -3 0 105 0 106
39 0 c58 0 68 -16 76 -120 l7 -90 45 0 45 0 -4 94 c-2 79 -7 99 -25 125 l-23
30 24 26 c29 32 39 77 26 125 -14 51 -47 78 -109 90 -77 14 -190 13 -197 -3z
m200 -83 c17 -16 21 -70 8 -92 -9 -13 -64 -32 -94 -32 -16 0 -18 10 -18 70 l0
70 44 0 c27 0 51 -6 60 -16z"/>
<path d="M9290 1591 l0 -251 129 0 c125 0 129 1 135 23 15 56 13 57 -84 57
l-90 0 -2 208 -3 207 -42 3 -43 3 0 -250z"/>
<path d="M9720 1818 c-6 -13 -33 -117 -60 -233 -28 -115 -53 -218 -56 -228 -5
-16 0 -18 43 -15 l48 3 13 63 14 63 61 -3 61 -3 8 -40 c18 -89 15 -85 62 -85
23 0 45 2 47 5 3 2 -23 114 -56 247 l-61 243 -57 3 c-51 3 -58 1 -67 -20z
m100 -260 c0 -14 -8 -18 -40 -18 -22 0 -40 3 -40 7 0 12 32 167 38 183 4 14
41 -134 42 -172z"/>
<path d="M10027 1833 c-4 -3 -7 -116 -7 -250 l0 -244 43 3 42 3 0 173 c0 94 0
172 1 172 1 0 32 -79 69 -175 l68 -176 49 3 49 3 0 245 0 245 -38 0 -38 0 -3
-165 -3 -165 -61 155 c-33 85 -65 161 -71 168 -10 12 -89 17 -100 5z"/>
<path d="M10445 1829 c-3 -8 -4 -120 -3 -249 l3 -235 101 0 c122 1 159 19 196
93 20 41 23 62 23 157 0 99 -3 115 -25 154 -36 65 -68 79 -188 87 -83 6 -102
4 -107 -7z m192 -93 c28 -24 28 -26 28 -139 0 -102 -3 -119 -21 -144 -19 -26
-78 -48 -96 -37 -5 3 -8 81 -8 175 l0 169 34 0 c22 0 45 -9 63 -24z"/>
<path d="M11310 1740 l0 -90 -70 0 -70 0 0 80 0 80 -40 0 -40 0 0 -80 0 -80
-55 0 -55 0 0 85 0 85 -40 0 -40 0 0 -130 0 -130 240 0 240 0 0 129 c0 137 -2
141 -51 141 -17 0 -19 -8 -19 -90z"/>
<path d="M229 1805 c-49 -26 -64 -76 -64 -210 0 -97 4 -127 19 -158 22 -45 60
-67 116 -67 97 0 133 53 138 206 4 118 -9 176 -48 216 -24 24 -36 28 -82 28
-29 -1 -65 -7 -79 -15z m107 -66 c15 -17 20 -40 23 -117 5 -143 -25 -211 -79
-182 -30 16 -42 76 -39 182 4 101 20 138 59 138 9 0 25 -9 36 -21z"/>
<path d="M510 1598 l0 -223 36 1 36 1 0 92 0 91 37 0 c50 0 61 -14 61 -80 0
-84 6 -97 46 -102 19 -2 36 -3 37 -2 1 1 0 43 -3 93 -4 65 -11 96 -22 107 -15
15 -14 19 8 51 28 41 30 79 9 129 -19 47 -63 64 -165 64 l-80 0 0 -222z m170
133 c28 -53 -4 -105 -62 -99 l-33 3 -2 58 -1 57 44 0 c33 0 46 -5 54 -19z"/>
<path d="M830 1600 l0 -220 35 0 35 0 0 153 1 152 57 -154 c31 -84 60 -153 65
-152 4 1 23 1 42 1 l35 0 0 220 0 220 -35 0 -35 0 0 -147 -1 -148 -56 148 -55
147 -44 0 -44 0 0 -220z"/>
<path d="M1244 1806 c-10 -26 -101 -426 -97 -429 2 -2 20 -1 40 2 35 6 38 9
48 56 l10 50 50 0 50 0 10 -50 c11 -50 11 -50 54 -53 37 -3 42 -1 38 15 -8 26
-97 412 -97 418 0 3 -23 5 -50 5 -34 0 -52 -5 -56 -14z m80 -210 l7 -36 -37 0
c-32 0 -36 2 -31 23 3 12 11 51 18 87 l13 65 12 -51 c6 -29 14 -68 18 -88z"/>
<path d="M1490 1600 l0 -220 35 0 35 0 1 178 1 177 29 -169 c15 -93 30 -174
32 -180 3 -6 20 -11 38 -10 l34 1 32 169 31 169 1 -166 c1 -91 3 -168 6 -170
2 -3 20 -3 40 -1 l35 4 0 219 0 219 -59 0 -59 0 -28 -149 c-16 -82 -30 -148
-32 -147 -1 2 -9 45 -17 97 -9 52 -20 118 -26 147 l-10 52 -60 0 -59 0 0 -220z"/>
<path d="M1917 1813 c-7 -7 -10 -427 -3 -434 2 -2 55 -2 118 1 l113 5 3 27 3
27 -78 3 -78 3 -3 62 -3 62 73 3 73 3 3 33 3 32 -75 0 -76 0 0 55 0 55 75 0
75 0 0 35 0 35 -108 0 c-60 0 -112 -3 -115 -7z"/>
<path d="M2200 1601 l0 -221 35 0 34 0 3 153 3 152 54 -152 55 -153 43 0 43 0
0 220 0 220 -35 0 -34 0 -3 -142 -3 -143 -51 140 -51 140 -47 3 -46 3 0 -220z"/>
<path d="M2517 1813 c-4 -3 -7 -19 -7 -35 0 -27 2 -28 50 -28 l50 0 0 -185 0
-185 40 0 40 0 0 185 0 185 45 0 c45 0 45 0 45 35 l0 35 -128 0 c-71 0 -132
-3 -135 -7z"/>
<path d="M7745 1783 c-39 -10 -82 -52 -115 -115 -44 -85 -57 -98 -95 -98 -64
0 -77 73 -17 99 30 14 32 18 32 63 0 55 -5 57 -68 28 -74 -34 -102 -132 -62
-216 25 -50 68 -74 132 -74 62 0 98 27 137 101 49 93 66 109 118 109 36 0 45
-4 54 -24 18 -38 3 -74 -36 -93 -33 -16 -35 -20 -35 -65 0 -52 1 -53 51 -37
52 18 86 55 99 110 33 136 -66 243 -195 212z"/>
<path d="M3081 1699 c-102 -22 -148 -127 -100 -226 16 -33 33 -50 73 -71 48
-25 59 -27 186 -27 124 0 139 2 184 25 59 30 86 74 86 140 0 85 -50 147 -128
157 l-42 6 0 -47 c0 -44 2 -47 31 -53 36 -7 63 -43 54 -73 -13 -40 -61 -54
-185 -54 -129 -1 -176 12 -191 52 -13 33 10 67 50 75 29 6 31 9 31 51 0 25 -3
47 -7 49 -5 2 -23 0 -42 -4z"/>
<path d="M4868 1565 l3 -85 -75 0 -76 0 0 75 0 75 -35 0 -35 0 0 -75 0 -75
-60 0 -60 0 0 80 0 80 -40 0 -40 0 0 -125 0 -125 245 0 246 0 -3 128 -3 127
-35 3 -35 3 3 -86z"/>
<path d="M3750 1578 c-85 -43 -116 -165 -67 -259 18 -34 36 -51 82 -74 54 -28
68 -30 184 -34 158 -4 219 9 272 56 74 67 79 200 11 277 -21 23 -89 55 -119
56 -21 0 -23 -5 -23 -55 0 -51 2 -55 28 -61 94 -22 94 -119 -1 -145 -63 -18
-263 -15 -309 4 -73 31 -77 107 -8 134 40 16 40 17 40 70 0 49 -2 53 -23 53
-12 0 -43 -10 -67 -22z"/>
<path d="M10953 1480 c-46 -28 -66 -72 -61 -136 6 -67 28 -101 86 -127 40 -19
65 -22 172 -22 111 0 130 3 167 23 53 28 73 65 73 134 0 85 -53 148 -125 148
-23 0 -25 -3 -25 -44 0 -41 2 -45 30 -51 61 -13 63 -76 3 -102 -49 -20 -218
-20 -267 1 -35 14 -37 18 -34 53 3 33 7 39 36 48 30 8 32 12 32 52 0 40 -2 43
-27 43 -16 0 -42 -9 -60 -20z"/>
<path d="M7835 1400 c-38 -9 -150 -37 -247 -61 l-178 -43 0 -62 0 -63 38 -10
c20 -6 114 -28 207 -50 94 -23 186 -45 206 -51 20 -5 46 -10 58 -10 20 0 22 4
19 47 l-3 47 -63 14 -63 14 3 61 3 61 63 14 62 13 0 50 c0 57 1 57 -105 29z
m-115 -171 c0 -40 0 -41 -32 -34 -119 23 -144 29 -151 35 -8 7 112 36 161 39
19 1 22 -4 22 -40z"/>
<path d="M4508 1304 c-46 -24 -58 -61 -58 -174 l0 -100 245 0 245 0 0 45 0 45
-105 0 -105 0 0 33 c0 61 17 72 119 75 l91 4 0 45 0 46 -92 -8 c-93 -7 -148
-25 -148 -48 0 -6 -5 -4 -11 6 -26 44 -126 61 -181 31z m136 -96 c9 -12 16
-37 16 -55 l0 -33 -70 0 -70 0 0 39 c0 50 21 71 70 71 29 0 43 -6 54 -22z"/>
<path d="M1390 996 l0 -226 35 0 34 0 3 158 3 157 55 -155 56 -155 44 0 45 0
0 220 0 220 -35 0 -35 0 0 -147 c0 -80 -1 -145 -2 -144 -2 1 -27 67 -57 147
l-54 144 -46 3 -46 3 0 -225z"/>
<path d="M1805 1198 c-2 -13 -25 -110 -50 -217 -25 -106 -45 -197 -45 -202 0
-5 18 -9 39 -9 39 0 40 1 46 43 10 64 15 69 71 65 l49 -3 9 -52 9 -53 44 0
c42 0 43 1 36 28 -4 15 -27 115 -53 222 l-46 195 -52 3 c-47 3 -52 1 -57 -20z
m76 -158 c9 -44 13 -82 11 -85 -12 -12 -62 -4 -62 10 0 30 24 155 30 155 3 0
13 -36 21 -80z"/>
<path d="M1990 1185 c0 -35 0 -35 45 -35 l45 0 0 -190 0 -190 40 0 40 0 2 188
3 187 48 3 c46 3 47 4 47 38 l0 34 -135 0 -135 0 0 -35z"/>
<path d="M2307 1213 c-4 -3 -7 -105 -7 -225 l0 -218 40 0 40 0 0 225 0 225
-33 0 c-19 0 -37 -3 -40 -7z"/>
<path d="M2430 1208 c0 -7 23 -109 51 -225 l52 -213 47 0 48 0 51 208 c29 114
54 215 57 225 5 16 0 18 -38 15 l-43 -3 -36 -170 c-20 -93 -39 -163 -42 -155
-3 8 -12 56 -22 105 -9 50 -23 120 -31 158 l-16 67 -39 0 c-24 0 -39 -5 -39
-12z"/>
<path d="M2780 996 l0 -226 40 0 40 0 -2 223 -3 222 -37 3 -38 3 0 -225z"/>
<path d="M2900 1186 c0 -34 1 -35 48 -38 l47 -3 3 -187 2 -188 40 0 40 0 0
190 0 190 45 0 c45 0 45 0 45 35 l0 35 -135 0 -135 0 0 -34z"/>
<path d="M3200 1212 c0 -6 25 -70 55 -143 52 -125 55 -138 55 -216 l0 -83 40
0 40 0 0 83 c0 77 4 90 55 214 30 73 55 137 55 143 0 5 -18 10 -39 10 l-39 0
-34 -102 -34 -101 -35 99 -35 99 -42 3 c-23 2 -42 -1 -42 -6z"/>
<path d="M11123 1103 l-223 -55 0 -63 c0 -61 1 -63 28 -67 27 -5 402 -94 435
-104 16 -5 18 0 15 42 -3 52 3 47 -90 68 -26 6 -28 10 -28 61 0 51 2 55 28 61
93 21 87 16 90 67 3 40 0 47 -15 46 -10 -1 -118 -26 -240 -56z m57 -118 c0
-41 1 -41 -105 -18 l-80 18 70 16 c109 26 115 25 115 -16z"/>
<path d="M4180 1036 l0 -116 -90 0 -90 0 0 105 0 105 -45 0 -45 0 0 -105 0
-105 -75 0 -75 0 0 110 0 110 -45 0 -45 0 0 -165 0 -165 300 0 300 0 0 165 c0
133 -3 165 -14 165 -7 0 -28 3 -45 6 l-31 7 0 -117z"/>
<path d="M7850 916 l0 -96 -75 0 -75 0 0 85 0 85 -40 0 -40 0 0 -85 0 -85 -60
0 -59 0 -3 88 -3 87 -42 3 -43 3 0 -140 0 -141 265 0 265 0 0 140 c0 112 -3
140 -14 140 -7 0 -28 3 -45 6 l-31 7 0 -97z"/>
<path d="M4450 829 l0 -150 38 3 37 3 3 53 3 52 205 0 204 0 0 45 0 45 -205 0
-205 0 0 50 0 50 -40 0 -40 0 0 -151z"/>
<path d="M11310 691 l0 -91 -70 0 -70 0 0 80 0 80 -40 0 -40 0 0 -80 0 -80
-55 0 -54 0 -3 83 -3 82 -37 3 -38 3 0 -135 0 -135 240 0 240 0 0 134 c0 126
-1 135 -19 135 -11 0 -26 3 -35 6 -14 5 -16 -6 -16 -85z"/>
<path d="M3880 714 c-99 -15 -162 -54 -191 -118 -15 -32 -19 -65 -19 -158 l0
-118 300 0 300 0 0 98 c0 156 -29 221 -116 265 -55 28 -191 43 -274 31z m192
-125 c70 -15 108 -53 108 -108 l0 -41 -210 0 -210 0 0 35 c0 67 31 102 105
118 41 9 156 7 207 -4z"/>
<path d="M7694 618 c-19 -18 -52 -64 -72 -102 -40 -74 -66 -91 -110 -75 -47
18 -41 86 8 96 28 5 30 8 30 54 0 43 -3 49 -21 49 -43 0 -91 -32 -110 -74 -59
-130 33 -256 165 -226 50 11 77 38 121 121 38 73 56 89 103 89 60 0 84 -71 36
-109 -15 -12 -33 -21 -40 -21 -10 0 -14 -14 -14 -50 0 -44 2 -50 21 -50 33 0
94 39 115 73 13 22 19 51 18 92 0 110 -52 165 -157 165 -51 0 -61 -4 -93 -32z"/>
<path d="M10973 435 c-57 -24 -73 -65 -73 -182 l0 -103 240 0 240 0 0 45 0 45
-94 0 -93 0 -7 63 c-3 35 -14 73 -24 87 -40 54 -123 74 -189 45z m126 -100 c7
-7 14 -31 15 -52 l1 -38 -72 -3 -73 -3 0 39 c0 38 16 62 50 75 21 8 62 -1 79
-18z"/>
</g>
</svg>
